<svg xmlns="http://www.w3.org/2000/svg" version="1.1" xmlns:xlink="http://www.w3.org/1999/xlink" xmlns:svgjs="http://svgjs.dev/svgjs" style="background-color: rgb(255,255,255);" width="676" height="699"><g data-name="sheet" transform="matrix(1,0,0,1,108.5,243.125)"><g data-name="connection-container"><path data-name="connection" d="M 281.5 -223.125L 294.5 -223.125L 294.5 -223.125Q 294.5 -223.125 302.5 -223.125L 307.5 -223.125" fill="none" stroke="#2196f3" stroke-width="2"></path><path data-name="connection" d="M 187.5 -169.125L 200.5 -169.125L 200.5 -215.125Q 200.5 -223.125 208.5 -223.125L 213.5 -223.125" fill="none" stroke="#2196f3" stroke-width="2"></path><path data-name="connection" d="M 187.5 -169.125L 200.5 -169.125L 200.5 -179.125Q 200.5 -187.125 208.5 -187.125L 213.5 -187.125" fill="none" stroke="#2196f3" stroke-width="2"></path><path data-name="connection" d="M 187.5 -169.125L 200.5 -169.125L 200.5 -159.125Q 200.5 -151.125 208.5 -151.125L 213.5 -151.125" fill="none" stroke="#2196f3" stroke-width="2"></path><path data-name="connection" d="M 187.5 -169.125L 200.5 -169.125L 200.5 -123.125Q 200.5 -115.125 208.5 -115.125L 213.5 -115.125" fill="none" stroke="#2196f3" stroke-width="2"></path><path data-name="connection" d="M 19.784662334080664 0L 19.784662334080664 0Q 38.92772986726453 -169.125 115.5 -169.125" fill="none" stroke="#2196f3" stroke-width="3" clip-path="url(&quot;#SvgjsClipPath1006&quot;)"></path><path data-name="connection" d="M 281.5 -12.125L 294.5 -12.125L 294.5 -42.125Q 294.5 -50.125 302.5 -50.125L 307.5 -50.125" fill="none" stroke="#2196f3" stroke-width="2"></path><path data-name="connection" d="M 281.5 -12.125L 294.5 -12.125L 294.5 -12.125Q 294.5 -12.125 302.5 -12.125L 307.5 -12.125" fill="none" stroke="#2196f3" stroke-width="2"></path><path data-name="connection" d="M 281.5 -12.125L 294.5 -12.125L 294.5 17.875Q 294.5 25.875 302.5 25.875L 307.5 25.875" fill="none" stroke="#2196f3" stroke-width="2"></path><path data-name="connection" d="M 187.5 169.125L 200.5 169.125L 200.5 -4.125Q 200.5 -12.125 208.5 -12.125L 213.5 -12.125" fill="none" stroke="#2196f3" stroke-width="2"></path><path data-name="connection" d="M 309.5 80.875L 322.5 80.875L 322.5 69.875Q 322.5 61.875 330.5 61.875L 335.5 61.875" fill="none" stroke="#2196f3" stroke-width="2"></path><path data-name="connection" d="M 309.5 80.875L 322.5 80.875L 322.5 91.875Q 322.5 99.875 330.5 99.875L 335.5 99.875" fill="none" stroke="#2196f3" stroke-width="2"></path><path data-name="connection" d="M 187.5 169.125L 200.5 169.125L 200.5 88.875Q 200.5 80.875 208.5 80.875L 213.5 80.875" fill="none" stroke="#2196f3" stroke-width="2"></path><path data-name="connection" d="M 281.5 173.875L 294.5 173.875L 294.5 143.875Q 294.5 135.875 302.5 135.875L 307.5 135.875" fill="none" stroke="#2196f3" stroke-width="2"></path><path data-name="connection" d="M 281.5 173.875L 294.5 173.875L 294.5 173.875Q 294.5 173.875 302.5 173.875L 307.5 173.875" fill="none" stroke="#2196f3" stroke-width="2"></path><path data-name="connection" d="M 361.5 211.875L 374.5 211.875L 374.5 211.875Q 374.5 211.875 382.5 211.875L 387.5 211.875" fill="none" stroke="#2196f3" stroke-width="2"></path><path data-name="connection" d="M 281.5 173.875L 294.5 173.875L 294.5 203.875Q 294.5 211.875 302.5 211.875L 307.5 211.875" fill="none" stroke="#2196f3" stroke-width="2"></path><path data-name="connection" d="M 187.5 169.125L 200.5 169.125L 200.5 173.875Q 200.5 173.875 208.5 173.875L 213.5 173.875" fill="none" stroke="#2196f3" stroke-width="2"></path><path data-name="connection" d="M 187.5 169.125L 200.5 169.125L 200.5 239.875Q 200.5 247.875 208.5 247.875L 213.5 247.875" fill="none" stroke="#2196f3" stroke-width="2"></path><path data-name="connection" d="M 375.5 302.875L 388.5 302.875L 388.5 291.875Q 388.5 283.875 396.5 283.875L 401.5 283.875" fill="none" stroke="#2196f3" stroke-width="2"></path><path data-name="connection" d="M 375.5 302.875L 388.5 302.875L 388.5 313.875Q 388.5 321.875 396.5 321.875L 401.5 321.875" fill="none" stroke="#2196f3" stroke-width="2"></path><path data-name="connection" d="M 309.5 350.375L 322.5 350.375L 322.5 310.875Q 322.5 302.875 330.5 302.875L 335.5 302.875" fill="none" stroke="#2196f3" stroke-width="2"></path><path data-name="connection" d="M 375.5 397.875L 388.5 397.875L 388.5 367.875Q 388.5 359.875 396.5 359.875L 401.5 359.875" fill="none" stroke="#2196f3" stroke-width="2"></path><path data-name="connection" d="M 375.5 397.875L 388.5 397.875L 388.5 397.875Q 388.5 397.875 396.5 397.875L 401.5 397.875" fill="none" stroke="#2196f3" stroke-width="2"></path><path data-name="connection" d="M 375.5 397.875L 388.5 397.875L 388.5 427.875Q 388.5 435.875 396.5 435.875L 401.5 435.875" fill="none" stroke="#2196f3" stroke-width="2"></path><path data-name="connection" d="M 309.5 350.375L 322.5 350.375L 322.5 389.875Q 322.5 397.875 330.5 397.875L 335.5 397.875" fill="none" stroke="#2196f3" stroke-width="2"></path><path data-name="connection" d="M 187.5 169.125L 200.5 169.125L 200.5 342.375Q 200.5 350.375 208.5 350.375L 213.5 350.375" fill="none" stroke="#2196f3" stroke-width="2"></path><path data-name="connection" d="M 19.784662334080664 0L 19.784662334080664 0Q 38.92772986726453 169.125 115.5 169.125" fill="none" stroke="#2196f3" stroke-width="3" clip-path="url(&quot;#SvgjsClipPath1007&quot;)"></path></g><g data-name="branch-container"><g data-name="branch" transform="matrix(1,0,0,1,327.5,-223.125)"><g data-name="topic"><g data-name="topic-shape-group"><path d="M -12 -15L 12 -15Q 20 -15  20 -7L 20 7Q 20 15  12 15L -12 15Q -20 15  -20 7L -20 -7Q -20 -15  -12 -15" data-name="topic-shape" fill="#2196f3" stroke="#2196f3" stroke-width="0"></path><path d="M0 0 " data-name="topic-shape-fill" fill="#2196f3" stroke="#ffffff"></path><g data-name="topic-content" transform="matrix(1,0,0,1,-14,-9)"><g data-name="inner-element-group"><g data-name="topic-title-text-group"><text fill="#ffffff" text-decoration="none" text-anchor="middle" font-size="14" font-family="'NeverMind','Nunito Sans','Microsoft YaHei','PingFang SC','Microsoft JhengHei',sans-serif" font-weight="400" font-style="normal" transform="matrix(1,0,0,1,14,0)" svgjs:data="{&quot;leading&quot;:&quot;1.3&quot;}"><tspan font-family="'NeverMind','Nunito Sans','Microsoft YaHei','PingFang SC','Microsoft JhengHei',sans-serif" font-size="14" font-style="normal" font-weight="400" fill="#ffffff" text-decoration="none" dy="14" x="0">‎不亢</tspan></text></g></g></g></g></g></g><g data-name="branch" transform="matrix(1,0,0,1,247.5,-223.125)"><g data-name="topic"><g data-name="topic-shape-group"><path d="M -26 -15L 26 -15Q 34 -15  34 -7L 34 7Q 34 15  26 15L -26 15Q -34 15  -34 7L -34 -7Q -34 -15  -26 -15" data-name="topic-shape" fill="#2196f3" stroke="#2196f3" stroke-width="0"></path><path d="M0 0 " data-name="topic-shape-fill" fill="#2196f3" stroke="#ffffff"></path><g data-name="topic-content" transform="matrix(1,0,0,1,-28,-9)"><g data-name="inner-element-group"><g data-name="topic-title-text-group"><text fill="#ffffff" text-decoration="none" text-anchor="middle" font-size="14" font-family="'NeverMind','Nunito Sans','Microsoft YaHei','PingFang SC','Microsoft JhengHei',sans-serif" font-weight="400" font-style="normal" transform="matrix(1,0,0,1,28,0)" svgjs:data="{&quot;leading&quot;:&quot;1.3&quot;}"><tspan font-family="'NeverMind','Nunito Sans','Microsoft YaHei','PingFang SC','Microsoft JhengHei',sans-serif" font-size="14" font-style="normal" font-weight="400" fill="#ffffff" text-decoration="none" dy="14" x="0">‎不卑不亢</tspan></text></g></g></g></g></g></g><g data-name="branch" transform="matrix(1,0,0,1,240.5,-187.125)"><g data-name="topic"><g data-name="topic-shape-group"><path d="M -19 -15L 19 -15Q 27 -15  27 -7L 27 7Q 27 15  19 15L -19 15Q -27 15  -27 7L -27 -7Q -27 -15  -19 -15" data-name="topic-shape" fill="#2196f3" stroke="#2196f3" stroke-width="0"></path><path d="M0 0 " data-name="topic-shape-fill" fill="#2196f3" stroke="#ffffff"></path><g data-name="topic-content" transform="matrix(1,0,0,1,-21,-9)"><g data-name="inner-element-group"><g data-name="topic-title-text-group"><text fill="#ffffff" text-decoration="none" text-anchor="middle" font-size="14" font-family="'NeverMind','Nunito Sans','Microsoft YaHei','PingFang SC','Microsoft JhengHei',sans-serif" font-weight="400" font-style="normal" transform="matrix(1,0,0,1,21,0)" svgjs:data="{&quot;leading&quot;:&quot;1.3&quot;}"><tspan font-family="'NeverMind','Nunito Sans','Microsoft YaHei','PingFang SC','Microsoft JhengHei',sans-serif" font-size="14" font-style="normal" font-weight="400" fill="#ffffff" text-decoration="none" dy="14" x="0">‎说实话</tspan></text></g></g></g></g></g></g><g data-name="branch" transform="matrix(1,0,0,1,247.5,-151.125)"><g data-name="topic"><g data-name="topic-shape-group"><path d="M -26 -15L 26 -15Q 34 -15  34 -7L 34 7Q 34 15  26 15L -26 15Q -34 15  -34 7L -34 -7Q -34 -15  -26 -15" data-name="topic-shape" fill="#2196f3" stroke="#2196f3" stroke-width="0"></path><path d="M0 0 " data-name="topic-shape-fill" fill="#2196f3" stroke="#ffffff"></path><g data-name="topic-content" transform="matrix(1,0,0,1,-28,-9)"><g data-name="inner-element-group"><g data-name="topic-title-text-group"><text fill="#ffffff" text-decoration="none" text-anchor="middle" font-size="14" font-family="'NeverMind','Nunito Sans','Microsoft YaHei','PingFang SC','Microsoft JhengHei',sans-serif" font-weight="400" font-style="normal" transform="matrix(1,0,0,1,28,0)" svgjs:data="{&quot;leading&quot;:&quot;1.3&quot;}"><tspan font-family="'NeverMind','Nunito Sans','Microsoft YaHei','PingFang SC','Microsoft JhengHei',sans-serif" font-size="14" font-style="normal" font-weight="400" fill="#ffffff" text-decoration="none" dy="14" x="0">‎扬长避短</tspan></text></g></g></g></g></g></g><g data-name="branch" transform="matrix(1,0,0,1,247.5,-115.125)"><g data-name="topic"><g data-name="topic-shape-group"><path d="M -26 -15L 26 -15Q 34 -15  34 -7L 34 7Q 34 15  26 15L -26 15Q -34 15  -34 7L -34 -7Q -34 -15  -26 -15" data-name="topic-shape" fill="#2196f3" stroke="#2196f3" stroke-width="0"></path><path d="M0 0 " data-name="topic-shape-fill" fill="#2196f3" stroke="#ffffff"></path><g data-name="topic-content" transform="matrix(1,0,0,1,-28,-9)"><g data-name="inner-element-group"><g data-name="topic-title-text-group"><text fill="#ffffff" text-decoration="none" text-anchor="middle" font-size="14" font-family="'NeverMind','Nunito Sans','Microsoft YaHei','PingFang SC','Microsoft JhengHei',sans-serif" font-weight="400" font-style="normal" transform="matrix(1,0,0,1,28,0)" svgjs:data="{&quot;leading&quot;:&quot;1.3&quot;}"><tspan font-family="'NeverMind','Nunito Sans','Microsoft YaHei','PingFang SC','Microsoft JhengHei',sans-serif" font-size="14" font-style="normal" font-weight="400" fill="#ffffff" text-decoration="none" dy="14" x="0">‎抗住压力</tspan></text></g></g></g></g></g></g><g data-name="branch" transform="matrix(1,0,0,1,151.5,-169.125)"><g data-name="topic"><g data-name="topic-shape-group"><path d="M -28 -22L 28 -22Q 36 -22  36 -14L 36 14Q 36 22  28 22L -28 22Q -36 22  -36 14L -36 -14Q -36 -22  -28 -22" data-name="topic-shape" fill="#2196f3" stroke="#2196f3" stroke-width="0"></path><path d="M0 0 " data-name="topic-shape-fill" fill="#2196f3" stroke="#ffffff"></path><g data-name="topic-content" transform="matrix(1,0,0,1,-18,-12)"><g data-name="inner-element-group"><g data-name="topic-title-text-group"><text fill="#ffffff" text-decoration="none" text-anchor="start" font-size="18" font-family="'NeverMind','Nunito Sans','Microsoft YaHei','PingFang SC','Microsoft JhengHei',sans-serif" font-weight="500" font-style="normal" transform="matrix(1,0,0,1,0,0)" svgjs:data="{&quot;leading&quot;:&quot;1.3&quot;}"><tspan font-family="'NeverMind','Nunito Sans','Microsoft YaHei','PingFang SC','Microsoft JhengHei',sans-serif" font-size="18" font-style="normal" font-weight="500" fill="#ffffff" text-decoration="none" dy="18" x="0">‎原则</tspan></text></g></g></g></g></g></g><g data-name="branch" transform="matrix(1,0,0,1,334.5,-50.125)"><g data-name="topic"><g data-name="topic-shape-group"><path d="M -19 -15L 19 -15Q 27 -15  27 -7L 27 7Q 27 15  19 15L -19 15Q -27 15  -27 7L -27 -7Q -27 -15  -19 -15" data-name="topic-shape" fill="#2196f3" stroke="#2196f3" stroke-width="0"></path><path d="M0 0 " data-name="topic-shape-fill" fill="#2196f3" stroke="#ffffff"></path><g data-name="topic-content" transform="matrix(1,0,0,1,-21,-9)"><g data-name="inner-element-group"><g data-name="topic-title-text-group"><text fill="#ffffff" text-decoration="none" text-anchor="middle" font-size="14" font-family="'NeverMind','Nunito Sans','Microsoft YaHei','PingFang SC','Microsoft JhengHei',sans-serif" font-weight="400" font-style="normal" transform="matrix(1,0,0,1,21,0)" svgjs:data="{&quot;leading&quot;:&quot;1.3&quot;}"><tspan font-family="'NeverMind','Nunito Sans','Microsoft YaHei','PingFang SC','Microsoft JhengHei',sans-serif" font-size="14" font-style="normal" font-weight="400" fill="#ffffff" text-decoration="none" dy="14" x="0">‎市场价</tspan></text></g></g></g></g></g></g><g data-name="branch" transform="matrix(1,0,0,1,341.5,-12.125)"><g data-name="topic"><g data-name="topic-shape-group"><path d="M -26 -15L 26 -15Q 34 -15  34 -7L 34 7Q 34 15  26 15L -26 15Q -34 15  -34 7L -34 -7Q -34 -15  -26 -15" data-name="topic-shape" fill="#2196f3" stroke="#2196f3" stroke-width="0"></path><path d="M0 0 " data-name="topic-shape-fill" fill="#2196f3" stroke="#ffffff"></path><g data-name="topic-content" transform="matrix(1,0,0,1,-28,-9)"><g data-name="inner-element-group"><g data-name="topic-title-text-group"><text fill="#ffffff" text-decoration="none" text-anchor="middle" font-size="14" font-family="'NeverMind','Nunito Sans','Microsoft YaHei','PingFang SC','Microsoft JhengHei',sans-serif" font-weight="400" font-style="normal" transform="matrix(1,0,0,1,28,0)" svgjs:data="{&quot;leading&quot;:&quot;1.3&quot;}"><tspan font-family="'NeverMind','Nunito Sans','Microsoft YaHei','PingFang SC','Microsoft JhengHei',sans-serif" font-size="14" font-style="normal" font-weight="400" fill="#ffffff" text-decoration="none" dy="14" x="0">‎合理涨幅</tspan></text></g></g></g></g></g></g><g data-name="branch" transform="matrix(1,0,0,1,425.5,25.875)"><g data-name="topic"><g data-name="topic-shape-group"><path d="M -110 -15L 110 -15Q 118 -15  118 -7L 118 7Q 118 15  110 15L -110 15Q -118 15  -118 7L -118 -7Q -118 -15  -110 -15" data-name="topic-shape" fill="#2196f3" stroke="#2196f3" stroke-width="0"></path><path d="M0 0 " data-name="topic-shape-fill" fill="#2196f3" stroke="#ffffff"></path><g data-name="topic-content" transform="matrix(1,0,0,1,-112,-9)"><g data-name="inner-element-group"><g data-name="topic-title-text-group"><text fill="#ffffff" text-decoration="none" text-anchor="middle" font-size="14" font-family="'NeverMind','Nunito Sans','Microsoft YaHei','PingFang SC','Microsoft JhengHei',sans-serif" font-weight="400" font-style="normal" transform="matrix(1,0,0,1,112,0)" svgjs:data="{&quot;leading&quot;:&quot;1.3&quot;}"><tspan font-family="'NeverMind','Nunito Sans','Microsoft YaHei','PingFang SC','Microsoft JhengHei',sans-serif" font-size="14" font-style="normal" font-weight="400" fill="#ffffff" text-decoration="none" dy="14" x="0">‎主要是业务问题前景，内部晋升机制</tspan></text></g></g></g></g></g></g><g data-name="branch" transform="matrix(1,0,0,1,247.5,-12.125)"><g data-name="topic"><g data-name="topic-shape-group"><path d="M -26 -15L 26 -15Q 34 -15  34 -7L 34 7Q 34 15  26 15L -26 15Q -34 15  -34 7L -34 -7Q -34 -15  -26 -15" data-name="topic-shape" fill="#2196f3" stroke="#2196f3" stroke-width="0"></path><path d="M0 0 " data-name="topic-shape-fill" fill="#2196f3" stroke="#ffffff"></path><g data-name="topic-content" transform="matrix(1,0,0,1,-28,-9)"><g data-name="inner-element-group"><g data-name="topic-title-text-group"><text fill="#ffffff" text-decoration="none" text-anchor="middle" font-size="14" font-family="'NeverMind','Nunito Sans','Microsoft YaHei','PingFang SC','Microsoft JhengHei',sans-serif" font-weight="400" font-style="normal" transform="matrix(1,0,0,1,28,0)" svgjs:data="{&quot;leading&quot;:&quot;1.3&quot;}"><tspan font-family="'NeverMind','Nunito Sans','Microsoft YaHei','PingFang SC','Microsoft JhengHei',sans-serif" font-size="14" font-style="normal" font-weight="400" fill="#ffffff" text-decoration="none" dy="14" x="0">‎薪资问题</tspan></text></g></g></g></g></g></g><g data-name="branch" transform="matrix(1,0,0,1,408.5,61.875)"><g data-name="topic"><g data-name="topic-shape-group"><path d="M -65 -15L 65 -15Q 73 -15  73 -7L 73 7Q 73 15  65 15L -65 15Q -73 15  -73 7L -73 -7Q -73 -15  -65 -15" data-name="topic-shape" fill="#2196f3" stroke="#2196f3" stroke-width="0"></path><path d="M0 0 " data-name="topic-shape-fill" fill="#2196f3" stroke="#ffffff"></path><g data-name="topic-content" transform="matrix(1,0,0,1,-67,-9)"><g data-name="inner-element-group"><g data-name="topic-title-text-group"><text fill="#ffffff" text-decoration="none" text-anchor="middle" font-size="14" font-family="'NeverMind','Nunito Sans','Microsoft YaHei','PingFang SC','Microsoft JhengHei',sans-serif" font-weight="400" font-style="normal" transform="matrix(1,0,0,1,67,0)" svgjs:data="{&quot;leading&quot;:&quot;1.3&quot;}"><tspan font-family="'NeverMind','Nunito Sans','Microsoft YaHei','PingFang SC','Microsoft JhengHei',sans-serif" font-size="14" font-style="normal" font-weight="400" fill="#ffffff" text-decoration="none" dy="14" x="0">‎给自己的短期目标3年</tspan></text></g></g></g></g></g></g><g data-name="branch" transform="matrix(1,0,0,1,376.5,99.875)"><g data-name="topic"><g data-name="topic-shape-group"><path d="M -33 -15L 33 -15Q 41 -15  41 -7L 41 7Q 41 15  33 15L -33 15Q -41 15  -41 7L -41 -7Q -41 -15  -33 -15" data-name="topic-shape" fill="#2196f3" stroke="#2196f3" stroke-width="0"></path><path d="M0 0 " data-name="topic-shape-fill" fill="#2196f3" stroke="#ffffff"></path><g data-name="topic-content" transform="matrix(1,0,0,1,-35,-9)"><g data-name="inner-element-group"><g data-name="topic-title-text-group"><text fill="#ffffff" text-decoration="none" text-anchor="middle" font-size="14" font-family="'NeverMind','Nunito Sans','Microsoft YaHei','PingFang SC','Microsoft JhengHei',sans-serif" font-weight="400" font-style="normal" transform="matrix(1,0,0,1,35,0)" svgjs:data="{&quot;leading&quot;:&quot;1.3&quot;}"><tspan font-family="'NeverMind','Nunito Sans','Microsoft YaHei','PingFang SC','Microsoft JhengHei',sans-serif" font-size="14" font-style="normal" font-weight="400" fill="#ffffff" text-decoration="none" dy="14" x="0">‎发展瓶颈？</tspan></text></g></g></g></g></g></g><g data-name="branch" transform="matrix(1,0,0,1,261.5,80.875)"><g data-name="topic"><g data-name="topic-shape-group"><path d="M -40 -15L 40 -15Q 48 -15  48 -7L 48 7Q 48 15  40 15L -40 15Q -48 15  -48 7L -48 -7Q -48 -15  -40 -15" data-name="topic-shape" fill="#2196f3" stroke="#2196f3" stroke-width="0"></path><path d="M0 0 " data-name="topic-shape-fill" fill="#2196f3" stroke="#ffffff"></path><g data-name="topic-content" transform="matrix(1,0,0,1,-42,-9)"><g data-name="inner-element-group"><g data-name="topic-title-text-group"><text fill="#ffffff" text-decoration="none" text-anchor="middle" font-size="14" font-family="'NeverMind','Nunito Sans','Microsoft YaHei','PingFang SC','Microsoft JhengHei',sans-serif" font-weight="400" font-style="normal" transform="matrix(1,0,0,1,42,0)" svgjs:data="{&quot;leading&quot;:&quot;1.3&quot;}"><tspan font-family="'NeverMind','Nunito Sans','Microsoft YaHei','PingFang SC','Microsoft JhengHei',sans-serif" font-size="14" font-style="normal" font-weight="400" fill="#ffffff" text-decoration="none" dy="14" x="0">‎为什么离职？</tspan></text></g></g></g></g></g></g><g data-name="branch" transform="matrix(1,0,0,1,374.5,135.875)"><g data-name="topic"><g data-name="topic-shape-group"><path d="M -59 -15L 59 -15Q 67 -15  67 -7L 67 7Q 67 15  59 15L -59 15Q -67 15  -67 7L -67 -7Q -67 -15  -59 -15" data-name="topic-shape" fill="#2196f3" stroke="#2196f3" stroke-width="0"></path><path d="M0 0 " data-name="topic-shape-fill" fill="#2196f3" stroke="#ffffff"></path><g data-name="topic-content" transform="matrix(1,0,0,1,-61,-9)"><g data-name="inner-element-group"><g data-name="topic-title-text-group"><text fill="#ffffff" text-decoration="none" text-anchor="middle" font-size="14" font-family="'NeverMind','Nunito Sans','Microsoft YaHei','PingFang SC','Microsoft JhengHei',sans-serif" font-weight="400" font-style="normal" transform="matrix(1,0,0,1,61,0)" svgjs:data="{&quot;leading&quot;:&quot;1.3&quot;}"><tspan font-family="'NeverMind','Nunito Sans','Microsoft YaHei','PingFang SC','Microsoft JhengHei',sans-serif" font-size="14" font-style="normal" font-weight="400" fill="#ffffff" text-decoration="none" dy="14" x="0">‎最高A，一般是B,B+</tspan></text></g></g></g></g></g></g><g data-name="branch" transform="matrix(1,0,0,1,432.5,173.875)"><g data-name="topic"><g data-name="topic-shape-group"><path d="M -117 -15L 117 -15Q 125 -15  125 -7L 125 7Q 125 15  117 15L -117 15Q -125 15  -125 7L -125 -7Q -125 -15  -117 -15" data-name="topic-shape" fill="#2196f3" stroke="#2196f3" stroke-width="0"></path><path d="M0 0 " data-name="topic-shape-fill" fill="#2196f3" stroke="#ffffff"></path><g data-name="topic-content" transform="matrix(1,0,0,1,-119,-9)"><g data-name="inner-element-group"><g data-name="topic-title-text-group"><text fill="#ffffff" text-decoration="none" text-anchor="middle" font-size="14" font-family="'NeverMind','Nunito Sans','Microsoft YaHei','PingFang SC','Microsoft JhengHei',sans-serif" font-weight="400" font-style="normal" transform="matrix(1,0,0,1,119,0)" svgjs:data="{&quot;leading&quot;:&quot;1.3&quot;}"><tspan font-family="'NeverMind','Nunito Sans','Microsoft YaHei','PingFang SC','Microsoft JhengHei',sans-serif" font-size="14" font-style="normal" font-weight="400" fill="#ffffff" text-decoration="none" dy="14" x="0">‎最近一次，因为早就和领导通气要离职</tspan></text></g></g></g></g></g></g><g data-name="branch" transform="matrix(1,0,0,1,421,211.875)"><g data-name="topic"><g data-name="topic-shape-group"><path d="M -25.5 -15L 25.5 -15Q 33.5 -15  33.5 -7L 33.5 7Q 33.5 15  25.5 15L -25.5 15Q -33.5 15  -33.5 7L -33.5 -7Q -33.5 -15  -25.5 -15" data-name="topic-shape" fill="#2196f3" stroke="#2196f3" stroke-width="0"></path><path d="M0 0 " data-name="topic-shape-fill" fill="#2196f3" stroke="#ffffff"></path><g data-name="topic-content" transform="matrix(1,0,0,1,-27.5,-9)"><g data-name="inner-element-group"><g data-name="topic-title-text-group"><text fill="#ffffff" text-decoration="none" text-anchor="middle" font-size="14" font-family="'NeverMind','Nunito Sans','Microsoft YaHei','PingFang SC','Microsoft JhengHei',sans-serif" font-weight="400" font-style="normal" transform="matrix(1,0,0,1,27.5,0)" svgjs:data="{&quot;leading&quot;:&quot;1.3&quot;}"><tspan font-family="'NeverMind','Nunito Sans','Microsoft YaHei','PingFang SC','Microsoft JhengHei',sans-serif" font-size="14" font-style="normal" font-weight="400" fill="#ffffff" text-decoration="none" dy="14" x="0">‎婚假15天</tspan></text></g></g></g></g></g></g><g data-name="branch" transform="matrix(1,0,0,1,334.5,211.875)"><g data-name="topic"><g data-name="topic-shape-group"><path d="M -19 -15L 19 -15Q 27 -15  27 -7L 27 7Q 27 15  19 15L -19 15Q -27 15  -27 7L -27 -7Q -27 -15  -19 -15" data-name="topic-shape" fill="#2196f3" stroke="#2196f3" stroke-width="0"></path><path d="M0 0 " data-name="topic-shape-fill" fill="#2196f3" stroke="#ffffff"></path><g data-name="topic-content" transform="matrix(1,0,0,1,-21,-9)"><g data-name="inner-element-group"><g data-name="topic-title-text-group"><text fill="#ffffff" text-decoration="none" text-anchor="middle" font-size="14" font-family="'NeverMind','Nunito Sans','Microsoft YaHei','PingFang SC','Microsoft JhengHei',sans-serif" font-weight="400" font-style="normal" transform="matrix(1,0,0,1,21,0)" svgjs:data="{&quot;leading&quot;:&quot;1.3&quot;}"><tspan font-family="'NeverMind','Nunito Sans','Microsoft YaHei','PingFang SC','Microsoft JhengHei',sans-serif" font-size="14" font-style="normal" font-weight="400" fill="#ffffff" text-decoration="none" dy="14" x="0">‎内部卷</tspan></text></g></g></g></g></g></g><g data-name="branch" transform="matrix(1,0,0,1,247.5,173.875)"><g data-name="topic"><g data-name="topic-shape-group"><path d="M -26 -15L 26 -15Q 34 -15  34 -7L 34 7Q 34 15  26 15L -26 15Q -34 15  -34 7L -34 -7Q -34 -15  -26 -15" data-name="topic-shape" fill="#2196f3" stroke="#2196f3" stroke-width="0"></path><path d="M0 0 " data-name="topic-shape-fill" fill="#2196f3" stroke="#ffffff"></path><g data-name="topic-content" transform="matrix(1,0,0,1,-28,-9)"><g data-name="inner-element-group"><g data-name="topic-title-text-group"><text fill="#ffffff" text-decoration="none" text-anchor="middle" font-size="14" font-family="'NeverMind','Nunito Sans','Microsoft YaHei','PingFang SC','Microsoft JhengHei',sans-serif" font-weight="400" font-style="normal" transform="matrix(1,0,0,1,28,0)" svgjs:data="{&quot;leading&quot;:&quot;1.3&quot;}"><tspan font-family="'NeverMind','Nunito Sans','Microsoft YaHei','PingFang SC','Microsoft JhengHei',sans-serif" font-size="14" font-style="normal" font-weight="400" fill="#ffffff" text-decoration="none" dy="14" x="0">‎绩效问题</tspan></text></g></g></g></g></g></g><g data-name="branch" transform="matrix(1,0,0,1,268.5,247.875)"><g data-name="topic"><g data-name="topic-shape-group"><path d="M -47 -15L 47 -15Q 55 -15  55 -7L 55 7Q 55 15  47 15L -47 15Q -55 15  -55 7L -55 -7Q -55 -15  -47 -15" data-name="topic-shape" fill="#2196f3" stroke="#2196f3" stroke-width="0"></path><path d="M0 0 " data-name="topic-shape-fill" fill="#2196f3" stroke="#ffffff"></path><g data-name="topic-content" transform="matrix(1,0,0,1,-49,-9)"><g data-name="inner-element-group"><g data-name="topic-title-text-group"><text fill="#ffffff" text-decoration="none" text-anchor="middle" font-size="14" font-family="'NeverMind','Nunito Sans','Microsoft YaHei','PingFang SC','Microsoft JhengHei',sans-serif" font-weight="400" font-style="normal" transform="matrix(1,0,0,1,49,0)" svgjs:data="{&quot;leading&quot;:&quot;1.3&quot;}"><tspan font-family="'NeverMind','Nunito Sans','Microsoft YaHei','PingFang SC','Microsoft JhengHei',sans-serif" font-size="14" font-style="normal" font-weight="400" fill="#ffffff" text-decoration="none" dy="14" x="0">‎下一份工作期待</tspan></text></g></g></g></g></g></g><g data-name="branch" transform="matrix(1,0,0,1,435.5,283.875)"><g data-name="topic"><g data-name="topic-shape-group"><path d="M -26 -15L 26 -15Q 34 -15  34 -7L 34 7Q 34 15  26 15L -26 15Q -34 15  -34 7L -34 -7Q -34 -15  -26 -15" data-name="topic-shape" fill="#2196f3" stroke="#2196f3" stroke-width="0"></path><path d="M0 0 " data-name="topic-shape-fill" fill="#2196f3" stroke="#ffffff"></path><g data-name="topic-content" transform="matrix(1,0,0,1,-28,-9)"><g data-name="inner-element-group"><g data-name="topic-title-text-group"><text fill="#ffffff" text-decoration="none" text-anchor="middle" font-size="14" font-family="'NeverMind','Nunito Sans','Microsoft YaHei','PingFang SC','Microsoft JhengHei',sans-serif" font-weight="400" font-style="normal" transform="matrix(1,0,0,1,28,0)" svgjs:data="{&quot;leading&quot;:&quot;1.3&quot;}"><tspan font-family="'NeverMind','Nunito Sans','Microsoft YaHei','PingFang SC','Microsoft JhengHei',sans-serif" font-size="14" font-style="normal" font-weight="400" fill="#ffffff" text-decoration="none" dy="14" x="0">‎情绪管理</tspan></text></g></g></g></g></g></g><g data-name="branch" transform="matrix(1,0,0,1,435.5,321.875)"><g data-name="topic"><g data-name="topic-shape-group"><path d="M -26 -15L 26 -15Q 34 -15  34 -7L 34 7Q 34 15  26 15L -26 15Q -34 15  -34 7L -34 -7Q -34 -15  -26 -15" data-name="topic-shape" fill="#2196f3" stroke="#2196f3" stroke-width="0"></path><path d="M0 0 " data-name="topic-shape-fill" fill="#2196f3" stroke="#ffffff"></path><g data-name="topic-content" transform="matrix(1,0,0,1,-28,-9)"><g data-name="inner-element-group"><g data-name="topic-title-text-group"><text fill="#ffffff" text-decoration="none" text-anchor="middle" font-size="14" font-family="'NeverMind','Nunito Sans','Microsoft YaHei','PingFang SC','Microsoft JhengHei',sans-serif" font-weight="400" font-style="normal" transform="matrix(1,0,0,1,28,0)" svgjs:data="{&quot;leading&quot;:&quot;1.3&quot;}"><tspan font-family="'NeverMind','Nunito Sans','Microsoft YaHei','PingFang SC','Microsoft JhengHei',sans-serif" font-size="14" font-style="normal" font-weight="400" fill="#ffffff" text-decoration="none" dy="14" x="0">‎想法管理</tspan></text></g></g></g></g></g></g><g data-name="branch" transform="matrix(1,0,0,1,355.5,302.875)"><g data-name="topic"><g data-name="topic-shape-group"><path d="M -12 -15L 12 -15Q 20 -15  20 -7L 20 7Q 20 15  12 15L -12 15Q -20 15  -20 7L -20 -7Q -20 -15  -12 -15" data-name="topic-shape" fill="#2196f3" stroke="#2196f3" stroke-width="0"></path><path d="M0 0 " data-name="topic-shape-fill" fill="#2196f3" stroke="#ffffff"></path><g data-name="topic-content" transform="matrix(1,0,0,1,-14,-9)"><g data-name="inner-element-group"><g data-name="topic-title-text-group"><text fill="#ffffff" text-decoration="none" text-anchor="middle" font-size="14" font-family="'NeverMind','Nunito Sans','Microsoft YaHei','PingFang SC','Microsoft JhengHei',sans-serif" font-weight="400" font-style="normal" transform="matrix(1,0,0,1,14,0)" svgjs:data="{&quot;leading&quot;:&quot;1.3&quot;}"><tspan font-family="'NeverMind','Nunito Sans','Microsoft YaHei','PingFang SC','Microsoft JhengHei',sans-serif" font-size="14" font-style="normal" font-weight="400" fill="#ffffff" text-decoration="none" dy="14" x="0">‎缺点</tspan></text></g></g></g></g></g></g><g data-name="branch" transform="matrix(1,0,0,1,435.5,359.875)"><g data-name="topic"><g data-name="topic-shape-group"><path d="M -26 -15L 26 -15Q 34 -15  34 -7L 34 7Q 34 15  26 15L -26 15Q -34 15  -34 7L -34 -7Q -34 -15  -26 -15" data-name="topic-shape" fill="#2196f3" stroke="#2196f3" stroke-width="0"></path><path d="M0 0 " data-name="topic-shape-fill" fill="#2196f3" stroke="#ffffff"></path><g data-name="topic-content" transform="matrix(1,0,0,1,-28,-9)"><g data-name="inner-element-group"><g data-name="topic-title-text-group"><text fill="#ffffff" text-decoration="none" text-anchor="middle" font-size="14" font-family="'NeverMind','Nunito Sans','Microsoft YaHei','PingFang SC','Microsoft JhengHei',sans-serif" font-weight="400" font-style="normal" transform="matrix(1,0,0,1,28,0)" svgjs:data="{&quot;leading&quot;:&quot;1.3&quot;}"><tspan font-family="'NeverMind','Nunito Sans','Microsoft YaHei','PingFang SC','Microsoft JhengHei',sans-serif" font-size="14" font-style="normal" font-weight="400" fill="#ffffff" text-decoration="none" dy="14" x="0">‎自我反思</tspan></text></g></g></g></g></g></g><g data-name="branch" transform="matrix(1,0,0,1,449.5,397.875)"><g data-name="topic"><g data-name="topic-shape-group"><path d="M -40 -15L 40 -15Q 48 -15  48 -7L 48 7Q 48 15  40 15L -40 15Q -48 15  -48 7L -48 -7Q -48 -15  -40 -15" data-name="topic-shape" fill="#2196f3" stroke="#2196f3" stroke-width="0"></path><path d="M0 0 " data-name="topic-shape-fill" fill="#2196f3" stroke="#ffffff"></path><g data-name="topic-content" transform="matrix(1,0,0,1,-42,-9)"><g data-name="inner-element-group"><g data-name="topic-title-text-group"><text fill="#ffffff" text-decoration="none" text-anchor="middle" font-size="14" font-family="'NeverMind','Nunito Sans','Microsoft YaHei','PingFang SC','Microsoft JhengHei',sans-serif" font-weight="400" font-style="normal" transform="matrix(1,0,0,1,42,0)" svgjs:data="{&quot;leading&quot;:&quot;1.3&quot;}"><tspan font-family="'NeverMind','Nunito Sans','Microsoft YaHei','PingFang SC','Microsoft JhengHei',sans-serif" font-size="14" font-style="normal" font-weight="400" fill="#ffffff" text-decoration="none" dy="14" x="0">‎正确认识自己</tspan></text></g></g></g></g></g></g><g data-name="branch" transform="matrix(1,0,0,1,477.5,435.875)"><g data-name="topic"><g data-name="topic-shape-group"><path d="M -68 -15L 68 -15Q 76 -15  76 -7L 76 7Q 76 15  68 15L -68 15Q -76 15  -76 7L -76 -7Q -76 -15  -68 -15" data-name="topic-shape" fill="#2196f3" stroke="#2196f3" stroke-width="0"></path><path d="M0 0 " data-name="topic-shape-fill" fill="#2196f3" stroke="#ffffff"></path><g data-name="topic-content" transform="matrix(1,0,0,1,-70,-9)"><g data-name="inner-element-group"><g data-name="topic-title-text-group"><text fill="#ffffff" text-decoration="none" text-anchor="middle" font-size="14" font-family="'NeverMind','Nunito Sans','Microsoft YaHei','PingFang SC','Microsoft JhengHei',sans-serif" font-weight="400" font-style="normal" transform="matrix(1,0,0,1,70,0)" svgjs:data="{&quot;leading&quot;:&quot;1.3&quot;}"><tspan font-family="'NeverMind','Nunito Sans','Microsoft YaHei','PingFang SC','Microsoft JhengHei',sans-serif" font-size="14" font-style="normal" font-weight="400" fill="#ffffff" text-decoration="none" dy="14" x="0">‎对世界运行规则的好奇</tspan></text></g></g></g></g></g></g><g data-name="branch" transform="matrix(1,0,0,1,355.5,397.875)"><g data-name="topic"><g data-name="topic-shape-group"><path d="M -12 -15L 12 -15Q 20 -15  20 -7L 20 7Q 20 15  12 15L -12 15Q -20 15  -20 7L -20 -7Q -20 -15  -12 -15" data-name="topic-shape" fill="#2196f3" stroke="#2196f3" stroke-width="0"></path><path d="M0 0 " data-name="topic-shape-fill" fill="#2196f3" stroke="#ffffff"></path><g data-name="topic-content" transform="matrix(1,0,0,1,-14,-9)"><g data-name="inner-element-group"><g data-name="topic-title-text-group"><text fill="#ffffff" text-decoration="none" text-anchor="middle" font-size="14" font-family="'NeverMind','Nunito Sans','Microsoft YaHei','PingFang SC','Microsoft JhengHei',sans-serif" font-weight="400" font-style="normal" transform="matrix(1,0,0,1,14,0)" svgjs:data="{&quot;leading&quot;:&quot;1.3&quot;}"><tspan font-family="'NeverMind','Nunito Sans','Microsoft YaHei','PingFang SC','Microsoft JhengHei',sans-serif" font-size="14" font-style="normal" font-weight="400" fill="#ffffff" text-decoration="none" dy="14" x="0">‎优点</tspan></text></g></g></g></g></g></g><g data-name="branch" transform="matrix(1,0,0,1,261.5,350.375)"><g data-name="topic"><g data-name="topic-shape-group"><path d="M -40 -15L 40 -15Q 48 -15  48 -7L 48 7Q 48 15  40 15L -40 15Q -48 15  -48 7L -48 -7Q -48 -15  -40 -15" data-name="topic-shape" fill="#2196f3" stroke="#2196f3" stroke-width="0"></path><path d="M0 0 " data-name="topic-shape-fill" fill="#2196f3" stroke="#ffffff"></path><g data-name="topic-content" transform="matrix(1,0,0,1,-42,-9)"><g data-name="inner-element-group"><g data-name="topic-title-text-group"><text fill="#ffffff" text-decoration="none" text-anchor="middle" font-size="14" font-family="'NeverMind','Nunito Sans','Microsoft YaHei','PingFang SC','Microsoft JhengHei',sans-serif" font-weight="400" font-style="normal" transform="matrix(1,0,0,1,42,0)" svgjs:data="{&quot;leading&quot;:&quot;1.3&quot;}"><tspan font-family="'NeverMind','Nunito Sans','Microsoft YaHei','PingFang SC','Microsoft JhengHei',sans-serif" font-size="14" font-style="normal" font-weight="400" fill="#ffffff" text-decoration="none" dy="14" x="0">‎对自己的认识</tspan></text></g></g></g></g></g></g><g data-name="branch" transform="matrix(1,0,0,1,151.5,169.125)"><g data-name="topic"><g data-name="topic-shape-group"><path d="M -28 -22L 28 -22Q 36 -22  36 -14L 36 14Q 36 22  28 22L -28 22Q -36 22  -36 14L -36 -14Q -36 -22  -28 -22" data-name="topic-shape" fill="#2196f3" stroke="#2196f3" stroke-width="0"></path><path d="M0 0 " data-name="topic-shape-fill" fill="#2196f3" stroke="#ffffff"></path><g data-name="topic-content" transform="matrix(1,0,0,1,-18,-12)"><g data-name="inner-element-group"><g data-name="topic-title-text-group"><text fill="#ffffff" text-decoration="none" text-anchor="start" font-size="18" font-family="'NeverMind','Nunito Sans','Microsoft YaHei','PingFang SC','Microsoft JhengHei',sans-serif" font-weight="500" font-style="normal" transform="matrix(1,0,0,1,0,0)" svgjs:data="{&quot;leading&quot;:&quot;1.3&quot;}"><tspan font-family="'NeverMind','Nunito Sans','Microsoft YaHei','PingFang SC','Microsoft JhengHei',sans-serif" font-size="18" font-style="normal" font-weight="500" fill="#ffffff" text-decoration="none" dy="18" x="0">‎问题</tspan></text></g></g></g></g></g></g><g data-name="branch" transform="matrix(1,0,0,1,0,0)"><g data-name="topic"><g data-name="topic-shape-group"><path d="M -57.5 -35L 57.5 -35Q 65.5 -35  65.5 -27L 65.5 27Q 65.5 35  57.5 35L -57.5 35Q -65.5 35  -65.5 27L -65.5 -27Q -65.5 -35  -57.5 -35" data-name="topic-shape" fill="#2196f3" stroke="#2196f3" stroke-width="0"></path><path d="M0 0 " data-name="topic-shape-fill" fill="#2196f3" stroke="#ffffff"></path><g data-name="topic-content" transform="matrix(1,0,0,1,-36.5,-20)"><g data-name="inner-element-group"><g data-name="topic-title-text-group"><text fill="#ffffff" text-decoration="none" text-anchor="middle" font-size="30" font-family="'NeverMind','Nunito Sans','Microsoft YaHei','PingFang SC','Microsoft JhengHei',sans-serif" font-weight="500" font-style="normal" transform="matrix(1,0,0,1,36.5,0)" svgjs:data="{&quot;leading&quot;:&quot;1.3&quot;}"><tspan font-family="'NeverMind','Nunito Sans','Microsoft YaHei','PingFang SC','Microsoft JhengHei',sans-serif" font-size="30" font-style="normal" font-weight="500" fill="#ffffff" text-decoration="none" dy="30" x="0">‎HR面</tspan></text></g></g></g></g></g></g></g></g><defs><clipPath id="SvgjsClipPath1006"><path d="M -57.5 -35L 57.5 -35Q 65.5 -35  65.5 -27L 65.5 27Q 65.5 35  57.5 35L -57.5 35Q -65.5 35  -65.5 27L -65.5 -27Q -65.5 -35  -57.5 -35 
  M -10000 -10000
  L 10000 -10000
  L 10000 10000
  L -10000 10000
" fill="black" transform="translate(0 0)" clip-rule="evenodd"></path></clipPath><clipPath id="SvgjsClipPath1007"><path d="M -57.5 -35L 57.5 -35Q 65.5 -35  65.5 -27L 65.5 27Q 65.5 35  57.5 35L -57.5 35Q -65.5 35  -65.5 27L -65.5 -27Q -65.5 -35  -57.5 -35 
  M -10000 -10000
  L 10000 -10000
  L 10000 10000
  L -10000 10000
" fill="black" transform="translate(0 0)" clip-rule="evenodd"></path></clipPath></defs></svg>