<svg xmlns="http://www.w3.org/2000/svg" version="1.1" xmlns:xlink="http://www.w3.org/1999/xlink" xmlns:svgjs="http://svgjs.dev/svgjs" style="background-color: rgb(48,41,52);" width="427.75" height="231"><g data-name="sheet" transform="matrix(1,0,0,1,147.25,137.5)"><g data-name="connection-container"><path data-name="connection" d="M 51.4936360116761 0L 51.4936360116761 0L 75.86362744997778 -48.18263496066123Q 95.49681800583805 -87 117.24681800583805 -87L 139.5 -87" fill="none" stroke="#30d8c4" stroke-width="3" clip-path="url(&quot;#SvgjsClipPath1067&quot;)"></path><path data-name="connection" d="M 59.666666666666664 0L 59.666666666666664 0L 99.58333333333334 0Q 99.58333333333334 0 99.58333333333334 0L 139.5 0" fill="none" stroke="#30d8c4" stroke-width="3" clip-path="url(&quot;#SvgjsClipPath1068&quot;)"></path><path data-name="connection" d="M 59.666666666666664 0L 59.666666666666664 0L 82.93750826550261 50.71974661625203Q 99.58333333333334 87 119.54166666666669 87L 139.5 87" fill="none" stroke="#30d8c4" stroke-width="3" clip-path="url(&quot;#SvgjsClipPath1069&quot;)"></path></g><g data-name="branch-container"><g data-name="branch" transform="matrix(1,0,0,1,203,-109)"><g data-name="topic"><g data-name="topic-shape-group"><path d="M  -63.5 22L 63.5 22z" data-name="topic-shape" fill="none" stroke="#30d8c4" stroke-width="3"></path><path d="M0 0 " data-name="topic-shape-fill" fill="none" stroke="#ffffff"></path><g data-name="topic-content" transform="matrix(1,0,0,1,-42.5,-10.5)"><g data-name="inner-element-group"><g data-name="topic-title-text-group"><text fill="#ffffff" text-decoration="none" text-anchor="start" font-size="18" font-family="'Montserrat','Nunito Sans','Microsoft YaHei','PingFang SC','Microsoft JhengHei',sans-serif" font-weight="600" font-style="normal" transform="matrix(1,0,0,1,0,0)" svgjs:data="{&quot;leading&quot;:&quot;1.3&quot;}"><tspan font-family="'Montserrat','Nunito Sans','Microsoft YaHei','PingFang SC','Microsoft JhengHei',sans-serif" font-size="18" font-style="normal" font-weight="600" fill="#ffffff" text-decoration="none" dy="18" x="0">‎分支主题 1</tspan></text></g></g></g></g></g></g><g data-name="branch" transform="matrix(1,0,0,1,205,-22)"><g data-name="topic"><g data-name="topic-shape-group"><path d="M  -65.5 22L 65.5 22z" data-name="topic-shape" fill="none" stroke="#30d8c4" stroke-width="3"></path><path d="M0 0 " data-name="topic-shape-fill" fill="none" stroke="#ffffff"></path><g data-name="topic-content" transform="matrix(1,0,0,1,-44.5,-10.5)"><g data-name="inner-element-group"><g data-name="topic-title-text-group"><text fill="#ffffff" text-decoration="none" text-anchor="start" font-size="18" font-family="'Montserrat','Nunito Sans','Microsoft YaHei','PingFang SC','Microsoft JhengHei',sans-serif" font-weight="600" font-style="normal" transform="matrix(1,0,0,1,0,0)" svgjs:data="{&quot;leading&quot;:&quot;1.3&quot;}"><tspan font-family="'Montserrat','Nunito Sans','Microsoft YaHei','PingFang SC','Microsoft JhengHei',sans-serif" font-size="18" font-style="normal" font-weight="600" fill="#ffffff" text-decoration="none" dy="18" x="0">‎分支主题 2</tspan></text></g></g></g></g></g></g><g data-name="branch" transform="matrix(1,0,0,1,205,65)"><g data-name="topic"><g data-name="topic-shape-group"><path d="M  -65.5 22L 65.5 22z" data-name="topic-shape" fill="none" stroke="#30d8c4" stroke-width="3"></path><path d="M0 0 " data-name="topic-shape-fill" fill="none" stroke="#ffffff"></path><g data-name="topic-content" transform="matrix(1,0,0,1,-44.5,-10.5)"><g data-name="inner-element-group"><g data-name="topic-title-text-group"><text fill="#ffffff" text-decoration="none" text-anchor="start" font-size="18" font-family="'Montserrat','Nunito Sans','Microsoft YaHei','PingFang SC','Microsoft JhengHei',sans-serif" font-weight="600" font-style="normal" transform="matrix(1,0,0,1,0,0)" svgjs:data="{&quot;leading&quot;:&quot;1.3&quot;}"><tspan font-family="'Montserrat','Nunito Sans','Microsoft YaHei','PingFang SC','Microsoft JhengHei',sans-serif" font-size="18" font-style="normal" font-weight="600" fill="#ffffff" text-decoration="none" dy="18" x="0">‎分支主题 3</tspan></text></g></g></g></g></g></g><g data-name="branch" transform="matrix(1,0,0,1,0,0)"><g data-name="topic"><g data-name="topic-shape-group"><path d="M -56 -33.5C -100.66666666666666 -33.5 -100.66666666666666 33.5 -56 33.5L 56 33.5C 100.66666666666666 33.5 100.66666666666666 -33.5 56 -33.5L -56 -33.5" data-name="topic-shape" fill="#d1f786" stroke="#30d8c4" stroke-width="0"></path><path d="M0 0 " data-name="topic-shape-fill" fill="#d1f786" stroke="#ffffff"></path><g data-name="topic-content" transform="matrix(1,0,0,1,-56,-18.5)"><g data-name="inner-element-group"><g data-name="topic-title-text-group"><text fill="#302934" text-decoration="none" text-anchor="middle" font-size="28" font-family="'Montserrat','Nunito Sans','Microsoft YaHei','PingFang SC','Microsoft JhengHei',sans-serif" font-weight="600" font-style="normal" transform="matrix(1,0,0,1,56,0)" svgjs:data="{&quot;leading&quot;:&quot;1.3&quot;}"><tspan font-family="'Montserrat','Nunito Sans','Microsoft YaHei','PingFang SC','Microsoft JhengHei',sans-serif" font-size="28" font-style="normal" font-weight="600" fill="#302934" text-decoration="none" dy="28" x="0">‎写作学习</tspan></text></g></g></g></g></g></g></g></g><defs><clipPath id="SvgjsClipPath1067"><path d="M -56 -33.5C -100.66666666666666 -33.5 -100.66666666666666 33.5 -56 33.5L 56 33.5C 100.66666666666666 33.5 100.66666666666666 -33.5 56 -33.5L -56 -33.5 
  M -10000 -10000
  L 10000 -10000
  L 10000 10000
  L -10000 10000
" fill="black" transform="translate(0 0)" clip-rule="evenodd"></path></clipPath><clipPath id="SvgjsClipPath1068"><path d="M -56 -33.5C -100.66666666666666 -33.5 -100.66666666666666 33.5 -56 33.5L 56 33.5C 100.66666666666666 33.5 100.66666666666666 -33.5 56 -33.5L -56 -33.5 
  M -10000 -10000
  L 10000 -10000
  L 10000 10000
  L -10000 10000
" fill="black" transform="translate(0 0)" clip-rule="evenodd"></path></clipPath><clipPath id="SvgjsClipPath1069"><path d="M -56 -33.5C -100.66666666666666 -33.5 -100.66666666666666 33.5 -56 33.5L 56 33.5C 100.66666666666666 33.5 100.66666666666666 -33.5 56 -33.5L -56 -33.5 
  M -10000 -10000
  L 10000 -10000
  L 10000 10000
  L -10000 10000
" fill="black" transform="translate(0 0)" clip-rule="evenodd"></path></clipPath></defs></svg>