<svg xmlns="http://www.w3.org/2000/svg" version="1.1" xmlns:xlink="http://www.w3.org/1999/xlink" xmlns:svgjs="http://svgjs.dev/svgjs" style="background-color: #51A4B4;" width="383.25" height="222"><g data-name="sheet" transform="matrix(1,0,0,1,127.25,111)"><g data-name="connection-container"><path data-name="connection" d="M 47.33333333333333 0L 47.33333333333333 0L 121 -84" fill="none" stroke="#dee3ec" stroke-width="2" clip-path="url(&quot;#SvgjsClipPath1108&quot;)"></path><path data-name="connection" d="M 47.33333333333333 0L 47.33333333333333 0L 121 0" fill="none" stroke="#dee3ec" stroke-width="2" clip-path="url(&quot;#SvgjsClipPath1109&quot;)"></path><path data-name="connection" d="M 47.33333333333333 0L 47.33333333333333 0L 121 84" fill="none" stroke="#dee3ec" stroke-width="2" clip-path="url(&quot;#SvgjsClipPath1110&quot;)"></path></g><g data-name="branch-container"><g data-name="branch" transform="matrix(1,0,0,1,181.5,-84)"><g data-name="topic"><g data-name="topic-shape-group"><path d="M -52.5 -22L 52.5 -22Q 60.5 -22  60.5 -14L 60.5 14Q 60.5 22  52.5 22L -52.5 22Q -60.5 22  -60.5 14L -60.5 -14Q -60.5 -22  -52.5 -22" data-name="topic-shape" fill="#ffe6be" stroke="#ffe6be" stroke-width="0"></path><path d="M0 0 " data-name="topic-shape-fill" fill="#ffe6be" stroke="#ffffff"></path><g data-name="topic-content" transform="matrix(1,0,0,1,-42.5,-12)"><g data-name="inner-element-group"><g data-name="topic-title-text-group"><text fill="#333333" text-decoration="none" text-anchor="start" font-size="18" font-family="'Nunito','Nunito Sans','Microsoft YaHei','PingFang SC','Microsoft JhengHei',sans-serif" font-weight="600" font-style="normal" transform="matrix(1,0,0,1,0,0)" svgjs:data="{&quot;leading&quot;:&quot;1.3&quot;}"><tspan font-family="'Nunito','Nunito Sans','Microsoft YaHei','PingFang SC','Microsoft JhengHei',sans-serif" font-size="18" font-style="normal" font-weight="600" fill="#333333" text-decoration="none" dy="18" x="0">‎分支主题 1</tspan></text></g></g></g></g></g></g><g data-name="branch" transform="matrix(1,0,0,1,183.5,0)"><g data-name="topic"><g data-name="topic-shape-group"><path d="M -54.5 -22L 54.5 -22Q 62.5 -22  62.5 -14L 62.5 14Q 62.5 22  54.5 22L -54.5 22Q -62.5 22  -62.5 14L -62.5 -14Q -62.5 -22  -54.5 -22" data-name="topic-shape" fill="#ffe6be" stroke="#ffe6be" stroke-width="0"></path><path d="M0 0 " data-name="topic-shape-fill" fill="#ffe6be" stroke="#ffffff"></path><g data-name="topic-content" transform="matrix(1,0,0,1,-44.5,-12)"><g data-name="inner-element-group"><g data-name="topic-title-text-group"><text fill="#333333" text-decoration="none" text-anchor="start" font-size="18" font-family="'Nunito','Nunito Sans','Microsoft YaHei','PingFang SC','Microsoft JhengHei',sans-serif" font-weight="600" font-style="normal" transform="matrix(1,0,0,1,0,0)" svgjs:data="{&quot;leading&quot;:&quot;1.3&quot;}"><tspan font-family="'Nunito','Nunito Sans','Microsoft YaHei','PingFang SC','Microsoft JhengHei',sans-serif" font-size="18" font-style="normal" font-weight="600" fill="#333333" text-decoration="none" dy="18" x="0">‎分支主题 2</tspan></text></g></g></g></g></g></g><g data-name="branch" transform="matrix(1,0,0,1,183.5,84)"><g data-name="topic"><g data-name="topic-shape-group"><path d="M -54.5 -22L 54.5 -22Q 62.5 -22  62.5 -14L 62.5 14Q 62.5 22  54.5 22L -54.5 22Q -62.5 22  -62.5 14L -62.5 -14Q -62.5 -22  -54.5 -22" data-name="topic-shape" fill="#ffe6be" stroke="#ffe6be" stroke-width="0"></path><path d="M0 0 " data-name="topic-shape-fill" fill="#ffe6be" stroke="#ffffff"></path><g data-name="topic-content" transform="matrix(1,0,0,1,-44.5,-12)"><g data-name="inner-element-group"><g data-name="topic-title-text-group"><text fill="#333333" text-decoration="none" text-anchor="start" font-size="18" font-family="'Nunito','Nunito Sans','Microsoft YaHei','PingFang SC','Microsoft JhengHei',sans-serif" font-weight="600" font-style="normal" transform="matrix(1,0,0,1,0,0)" svgjs:data="{&quot;leading&quot;:&quot;1.3&quot;}"><tspan font-family="'Nunito','Nunito Sans','Microsoft YaHei','PingFang SC','Microsoft JhengHei',sans-serif" font-size="18" font-style="normal" font-weight="600" fill="#333333" text-decoration="none" dy="18" x="0">‎分支主题 3</tspan></text></g></g></g></g></g></g><g data-name="branch" transform="matrix(1,0,0,1,0,0)"><g data-name="topic"><g data-name="topic-shape-group"><path d="M -71 -19.199999999999996Q -71 -24.199999999999996 -66.26735653063488 -25.813098196600496Q 0 -48.39999999999999 66.26735653063488 -25.813098196600496Q 71 -24.199999999999996 71 -19.199999999999996L 71 19.199999999999996Q 71 24.199999999999996 66.26735653063488 25.813098196600496Q 0 48.39999999999999 -66.26735653063488 25.813098196600496Q -71 24.199999999999996 -71 19.199999999999996Z" data-name="topic-shape" fill="#ffffff" stroke="#dee3ec" stroke-width="0"></path><path d="M0 0 " data-name="topic-shape-fill" fill="#ffffff" stroke="#ffffff"></path><g data-name="topic-content" transform="matrix(1,0,0,1,-42,-18.499999999999996)"><g data-name="inner-element-group"><g data-name="topic-title-text-group"><text fill="#333e4a" text-decoration="none" text-anchor="middle" font-size="28" font-family="'Nunito','Nunito Sans','Microsoft YaHei','PingFang SC','Microsoft JhengHei',sans-serif" font-weight="700" font-style="normal" transform="matrix(1,0,0,1,42,0)" svgjs:data="{&quot;leading&quot;:&quot;1.3&quot;}"><tspan font-family="'Nunito','Nunito Sans','Microsoft YaHei','PingFang SC','Microsoft JhengHei',sans-serif" font-size="28" font-style="normal" font-weight="700" fill="#333e4a" text-decoration="none" dy="28" x="0">‎数据库</tspan></text></g></g></g></g></g></g></g></g><defs><clipPath id="SvgjsClipPath1108"><path d="M -71 -19.199999999999996Q -71 -24.199999999999996 -66.26735653063488 -25.813098196600496Q 0 -48.39999999999999 66.26735653063488 -25.813098196600496Q 71 -24.199999999999996 71 -19.199999999999996L 71 19.199999999999996Q 71 24.199999999999996 66.26735653063488 25.813098196600496Q 0 48.39999999999999 -66.26735653063488 25.813098196600496Q -71 24.199999999999996 -71 19.199999999999996Z 
  M -10000 -10000
  L 10000 -10000
  L 10000 10000
  L -10000 10000
" fill="black" transform="translate(0 0)" clip-rule="evenodd"></path></clipPath><clipPath id="SvgjsClipPath1109"><path d="M -71 -19.199999999999996Q -71 -24.199999999999996 -66.26735653063488 -25.813098196600496Q 0 -48.39999999999999 66.26735653063488 -25.813098196600496Q 71 -24.199999999999996 71 -19.199999999999996L 71 19.199999999999996Q 71 24.199999999999996 66.26735653063488 25.813098196600496Q 0 48.39999999999999 -66.26735653063488 25.813098196600496Q -71 24.199999999999996 -71 19.199999999999996Z 
  M -10000 -10000
  L 10000 -10000
  L 10000 10000
  L -10000 10000
" fill="black" transform="translate(0 0)" clip-rule="evenodd"></path></clipPath><clipPath id="SvgjsClipPath1110"><path d="M -71 -19.199999999999996Q -71 -24.199999999999996 -66.26735653063488 -25.813098196600496Q 0 -48.39999999999999 66.26735653063488 -25.813098196600496Q 71 -24.199999999999996 71 -19.199999999999996L 71 19.199999999999996Q 71 24.199999999999996 66.26735653063488 25.813098196600496Q 0 48.39999999999999 -66.26735653063488 25.813098196600496Q -71 24.199999999999996 -71 19.199999999999996Z 
  M -10000 -10000
  L 10000 -10000
  L 10000 10000
  L -10000 10000
" fill="black" transform="translate(0 0)" clip-rule="evenodd"></path></clipPath></defs></svg>