<svg xmlns="http://www.w3.org/2000/svg" version="1.1" xmlns:xlink="http://www.w3.org/1999/xlink" xmlns:svgjs="http://svgjs.dev/svgjs" style="background-color: rgb(84,87,83);" width="1120" height="528"><g data-name="sheet" transform="matrix(1,0,0,1,399,307)"><g data-name="connection-container"><path data-name="connection" d="M 563 -208L 576 -208L 576 -263Q 576 -271 584 -271L 589 -271" fill="none" stroke="#a4a8a3" stroke-width="2"></path><path data-name="connection" d="M 563 -208L 576 -208L 576 -221Q 576 -229 584 -229L 589 -229" fill="none" stroke="#a4a8a3" stroke-width="2"></path><path data-name="connection" d="M 563 -208L 576 -208L 576 -195Q 576 -187 584 -187L 589 -187" fill="none" stroke="#a4a8a3" stroke-width="2"></path><path data-name="connection" d="M 563 -208L 576 -208L 576 -153Q 576 -145 584 -145L 589 -145" fill="none" stroke="#a4a8a3" stroke-width="2"></path><path data-name="connection" d="M 311 -208L 324 -208L 324 -208Q 324 -208 332 -208L 337 -208" fill="none" stroke="#a4a8a3" stroke-width="2"></path><path data-name="connection" d="M 213 -106L 226 -106L 226 -200Q 226 -208 234 -208L 239 -208" fill="none" stroke="#a4a8a3" stroke-width="2"></path><path data-name="connection" d="M 213 -106L 226 -106L 226 -105Q 226 -105 234 -105L 239 -105" fill="none" stroke="#a4a8a3" stroke-width="2"></path><path data-name="connection" d="M 213 -106L 226 -106L 226 -73Q 226 -65 234 -65L 239 -65" fill="none" stroke="#a4a8a3" stroke-width="2"></path><path data-name="connection" d="M 311 -4L 324 -4L 324 -17Q 324 -25 332 -25L 337 -25" fill="none" stroke="#a4a8a3" stroke-width="2"></path><path data-name="connection" d="M 311 -4L 324 -4L 324 9Q 324 17 332 17L 337 17" fill="none" stroke="#a4a8a3" stroke-width="2"></path><path data-name="connection" d="M 213 -106L 226 -106L 226 -12Q 226 -4 234 -4L 239 -4" fill="none" stroke="#a4a8a3" stroke-width="2"></path><path data-name="connection" d="M 87 0L 100 0L 100 -98Q 100 -106 108 -106L 137 -106" fill="none" stroke="#a4a8a3" stroke-width="2"></path><path data-name="connection" d="M 213 106L 226 106L 226 94Q 226 86 234 86L 239 86" fill="none" stroke="#a4a8a3" stroke-width="2"></path><path data-name="connection" d="M 213 106L 226 106L 226 118Q 226 126 234 126L 239 126" fill="none" stroke="#a4a8a3" stroke-width="2"></path><path data-name="connection" d="M 87 0L 100 0L 100 98Q 100 106 108 106L 137 106" fill="none" stroke="#a4a8a3" stroke-width="2"></path></g><g data-name="branch-container"><g data-name="branch" transform="matrix(1,0,0,1,625,-286)"><g data-name="topic"><g data-name="topic-shape-group"><path d="M  -36 15L 36 15z" data-name="topic-shape" fill="none" stroke="#a4a8a3" stroke-width="2"></path><path d="M0 0 " data-name="topic-shape-fill" fill="none" stroke="#ffffff"></path><g data-name="topic-content" transform="matrix(1,0,0,1,-28,-8)"><g data-name="inner-element-group"><g data-name="topic-title-text-group"><text fill="#ffffff" text-decoration="none" text-anchor="start" font-size="14" font-family="'Roboto','Nunito Sans','Microsoft YaHei','PingFang SC','Microsoft JhengHei',sans-serif" font-weight="400" font-style="normal" transform="matrix(1,0,0,1,0,0)" svgjs:data="{&quot;leading&quot;:&quot;1.3&quot;}"><tspan font-family="'Roboto','Nunito Sans','Microsoft YaHei','PingFang SC','Microsoft JhengHei',sans-serif" font-size="14" font-style="normal" font-weight="400" fill="#ffffff" text-decoration="none" dy="14" x="0">‎位置信息</tspan></text></g></g></g></g></g></g><g data-name="branch" transform="matrix(1,0,0,1,611,-244)"><g data-name="topic"><g data-name="topic-shape-group"><path d="M  -22 15L 22 15z" data-name="topic-shape" fill="none" stroke="#a4a8a3" stroke-width="2"></path><path d="M0 0 " data-name="topic-shape-fill" fill="none" stroke="#ffffff"></path><g data-name="topic-content" transform="matrix(1,0,0,1,-14,-8)"><g data-name="inner-element-group"><g data-name="topic-title-text-group"><text fill="#ffffff" text-decoration="none" text-anchor="start" font-size="14" font-family="'Roboto','Nunito Sans','Microsoft YaHei','PingFang SC','Microsoft JhengHei',sans-serif" font-weight="400" font-style="normal" transform="matrix(1,0,0,1,0,0)" svgjs:data="{&quot;leading&quot;:&quot;1.3&quot;}"><tspan font-family="'Roboto','Nunito Sans','Microsoft YaHei','PingFang SC','Microsoft JhengHei',sans-serif" font-size="14" font-style="normal" font-weight="400" fill="#ffffff" text-decoration="none" dy="14" x="0">‎内容</tspan></text></g></g></g></g></g></g><g data-name="branch" transform="matrix(1,0,0,1,611,-202)"><g data-name="topic"><g data-name="topic-shape-group"><path d="M  -22 15L 22 15z" data-name="topic-shape" fill="none" stroke="#a4a8a3" stroke-width="2"></path><path d="M0 0 " data-name="topic-shape-fill" fill="none" stroke="#ffffff"></path><g data-name="topic-content" transform="matrix(1,0,0,1,-14,-8)"><g data-name="inner-element-group"><g data-name="topic-title-text-group"><text fill="#ffffff" text-decoration="none" text-anchor="start" font-size="14" font-family="'Roboto','Nunito Sans','Microsoft YaHei','PingFang SC','Microsoft JhengHei',sans-serif" font-weight="400" font-style="normal" transform="matrix(1,0,0,1,0,0)" svgjs:data="{&quot;leading&quot;:&quot;1.3&quot;}"><tspan font-family="'Roboto','Nunito Sans','Microsoft YaHei','PingFang SC','Microsoft JhengHei',sans-serif" font-size="14" font-style="normal" font-weight="400" fill="#ffffff" text-decoration="none" dy="14" x="0">‎长宽</tspan></text></g></g></g></g></g></g><g data-name="branch" transform="matrix(1,0,0,1,620,-160)"><g data-name="topic"><g data-name="topic-shape-group"><path d="M  -31 15L 31 15z" data-name="topic-shape" fill="none" stroke="#a4a8a3" stroke-width="2"></path><path d="M0 0 " data-name="topic-shape-fill" fill="none" stroke="#ffffff"></path><g data-name="topic-content" transform="matrix(1,0,0,1,-23,-8)"><g data-name="inner-element-group"><g data-name="topic-title-text-group"><text fill="#ffffff" text-decoration="none" text-anchor="start" font-size="14" font-family="'Roboto','Nunito Sans','Microsoft YaHei','PingFang SC','Microsoft JhengHei',sans-serif" font-weight="400" font-style="normal" transform="matrix(1,0,0,1,0,0)" svgjs:data="{&quot;leading&quot;:&quot;1.3&quot;}"><tspan font-family="'Roboto','Nunito Sans','Microsoft YaHei','PingFang SC','Microsoft JhengHei',sans-serif" font-size="14" font-style="normal" font-weight="400" fill="#ffffff" text-decoration="none" dy="14" x="0">‎classes</tspan></text></g></g></g></g></g></g><g data-name="branch" transform="matrix(1,0,0,1,450,-223)"><g data-name="topic"><g data-name="topic-shape-group"><path d="M  -113 15L 113 15z" data-name="topic-shape" fill="none" stroke="#a4a8a3" stroke-width="2"></path><path d="M0 0 " data-name="topic-shape-fill" fill="none" stroke="#ffffff"></path><g data-name="topic-content" transform="matrix(1,0,0,1,-105,-8)"><g data-name="inner-element-group"><g data-name="topic-title-text-group"><text fill="#ffffff" text-decoration="none" text-anchor="start" font-size="14" font-family="'Roboto','Nunito Sans','Microsoft YaHei','PingFang SC','Microsoft JhengHei',sans-serif" font-weight="400" font-style="normal" transform="matrix(1,0,0,1,0,0)" svgjs:data="{&quot;leading&quot;:&quot;1.3&quot;}"><tspan font-family="'Roboto','Nunito Sans','Microsoft YaHei','PingFang SC','Microsoft JhengHei',sans-serif" font-size="14" font-style="normal" font-weight="400" fill="#ffffff" text-decoration="none" dy="14" x="0">‎获取节点相关信息，并且可以编辑</tspan></text></g></g></g></g></g></g><g data-name="branch" transform="matrix(1,0,0,1,275,-223)"><g data-name="topic"><g data-name="topic-shape-group"><path d="M  -36 15L 36 15z" data-name="topic-shape" fill="none" stroke="#a4a8a3" stroke-width="2"></path><path d="M0 0 " data-name="topic-shape-fill" fill="none" stroke="#ffffff"></path><g data-name="topic-content" transform="matrix(1,0,0,1,-28,-8)"><g data-name="inner-element-group"><g data-name="topic-title-text-group"><text fill="#ffffff" text-decoration="none" text-anchor="start" font-size="14" font-family="'Roboto','Nunito Sans','Microsoft YaHei','PingFang SC','Microsoft JhengHei',sans-serif" font-weight="400" font-style="normal" transform="matrix(1,0,0,1,0,0)" svgjs:data="{&quot;leading&quot;:&quot;1.3&quot;}"><tspan font-family="'Roboto','Nunito Sans','Microsoft YaHei','PingFang SC','Microsoft JhengHei',sans-serif" font-size="14" font-style="normal" font-weight="400" fill="#ffffff" text-decoration="none" dy="14" x="0">‎点击聚焦</tspan></text></g></g></g></g></g></g><g data-name="branch" transform="matrix(1,0,0,1,289,-120)"><g data-name="topic"><g data-name="topic-shape-group"><path d="M  -50 15L 50 15z" data-name="topic-shape" fill="none" stroke="#a4a8a3" stroke-width="2"></path><path d="M0 0 " data-name="topic-shape-fill" fill="none" stroke="#ffffff"></path><g data-name="topic-content" transform="matrix(1,0,0,1,-42,-8)"><g data-name="inner-element-group"><g data-name="topic-title-text-group"><text fill="#ffffff" text-decoration="none" text-anchor="start" font-size="14" font-family="'Roboto','Nunito Sans','Microsoft YaHei','PingFang SC','Microsoft JhengHei',sans-serif" font-weight="400" font-style="normal" transform="matrix(1,0,0,1,0,0)" svgjs:data="{&quot;leading&quot;:&quot;1.3&quot;}"><tspan font-family="'Roboto','Nunito Sans','Microsoft YaHei','PingFang SC','Microsoft JhengHei',sans-serif" font-size="14" font-style="normal" font-weight="400" fill="#ffffff" text-decoration="none" dy="14" x="0">‎拖动位置移动</tspan></text></g></g></g></g></g></g><g data-name="branch" transform="matrix(1,0,0,1,295,-80)"><g data-name="topic"><g data-name="topic-shape-group"><path d="M  -56 15L 56 15z" data-name="topic-shape" fill="none" stroke="#a4a8a3" stroke-width="2"></path><path d="M0 0 " data-name="topic-shape-fill" fill="none" stroke="#ffffff"></path><g data-name="topic-content" transform="matrix(1,0,0,1,-48,-8)"><g data-name="inner-element-group"><g data-name="topic-title-text-group"><text fill="#ffffff" text-decoration="none" text-anchor="start" font-size="14" font-family="'Roboto','Nunito Sans','Microsoft YaHei','PingFang SC','Microsoft JhengHei',sans-serif" font-weight="400" font-style="normal" transform="matrix(1,0,0,1,0,0)" svgjs:data="{&quot;leading&quot;:&quot;1.3&quot;}"><tspan font-family="'Roboto','Nunito Sans','Microsoft YaHei','PingFang SC','Microsoft JhengHei',sans-serif" font-size="14" font-style="normal" font-weight="400" fill="#ffffff" text-decoration="none" dy="14" x="0">‎边框拖动 resize</tspan></text></g></g></g></g></g></g><g data-name="branch" transform="matrix(1,0,0,1,359,-40)"><g data-name="topic"><g data-name="topic-shape-group"><path d="M  -22 15L 22 15z" data-name="topic-shape" fill="none" stroke="#a4a8a3" stroke-width="2"></path><path d="M0 0 " data-name="topic-shape-fill" fill="none" stroke="#ffffff"></path><g data-name="topic-content" transform="matrix(1,0,0,1,-14,-8)"><g data-name="inner-element-group"><g data-name="topic-title-text-group"><text fill="#ffffff" text-decoration="none" text-anchor="start" font-size="14" font-family="'Roboto','Nunito Sans','Microsoft YaHei','PingFang SC','Microsoft JhengHei',sans-serif" font-weight="400" font-style="normal" transform="matrix(1,0,0,1,0,0)" svgjs:data="{&quot;leading&quot;:&quot;1.3&quot;}"><tspan font-family="'Roboto','Nunito Sans','Microsoft YaHei','PingFang SC','Microsoft JhengHei',sans-serif" font-size="14" font-style="normal" font-weight="400" fill="#ffffff" text-decoration="none" dy="14" x="0">‎回撤</tspan></text></g></g></g></g></g></g><g data-name="branch" transform="matrix(1,0,0,1,359,2)"><g data-name="topic"><g data-name="topic-shape-group"><path d="M  -22 15L 22 15z" data-name="topic-shape" fill="none" stroke="#a4a8a3" stroke-width="2"></path><path d="M0 0 " data-name="topic-shape-fill" fill="none" stroke="#ffffff"></path><g data-name="topic-content" transform="matrix(1,0,0,1,-14,-8)"><g data-name="inner-element-group"><g data-name="topic-title-text-group"><text fill="#ffffff" text-decoration="none" text-anchor="start" font-size="14" font-family="'Roboto','Nunito Sans','Microsoft YaHei','PingFang SC','Microsoft JhengHei',sans-serif" font-weight="400" font-style="normal" transform="matrix(1,0,0,1,0,0)" svgjs:data="{&quot;leading&quot;:&quot;1.3&quot;}"><tspan font-family="'Roboto','Nunito Sans','Microsoft YaHei','PingFang SC','Microsoft JhengHei',sans-serif" font-size="14" font-style="normal" font-weight="400" fill="#ffffff" text-decoration="none" dy="14" x="0">‎复位</tspan></text></g></g></g></g></g></g><g data-name="branch" transform="matrix(1,0,0,1,275,-19)"><g data-name="topic"><g data-name="topic-shape-group"><path d="M  -36 15L 36 15z" data-name="topic-shape" fill="none" stroke="#a4a8a3" stroke-width="2"></path><path d="M0 0 " data-name="topic-shape-fill" fill="none" stroke="#ffffff"></path><g data-name="topic-content" transform="matrix(1,0,0,1,-28,-8)"><g data-name="inner-element-group"><g data-name="topic-title-text-group"><text fill="#ffffff" text-decoration="none" text-anchor="start" font-size="14" font-family="'Roboto','Nunito Sans','Microsoft YaHei','PingFang SC','Microsoft JhengHei',sans-serif" font-weight="400" font-style="normal" transform="matrix(1,0,0,1,0,0)" svgjs:data="{&quot;leading&quot;:&quot;1.3&quot;}"><tspan font-family="'Roboto','Nunito Sans','Microsoft YaHei','PingFang SC','Microsoft JhengHei',sans-serif" font-size="14" font-style="normal" font-weight="400" fill="#ffffff" text-decoration="none" dy="14" x="0">‎辅助功能</tspan></text></g></g></g></g></g></g><g data-name="branch" transform="matrix(1,0,0,1,175,-106)"><g data-name="topic"><g data-name="topic-shape-group"><path d="M -29 -23L 30 -23Q 38 -23  38 -15L 38 16Q 38 24  30 24L -29 24Q -37 24  -37 16L -37 -15Q -37 -23  -29 -23" data-name="topic-shape" fill="none" stroke="#a4a8a3" stroke-width="2"></path><path d="M0 0 " data-name="topic-shape-fill" fill="none" stroke="#ffffff"></path><g data-name="topic-content" transform="matrix(1,0,0,1,-18,-12)"><g data-name="inner-element-group"><g data-name="topic-title-text-group"><text fill="#ffffff" text-decoration="none" text-anchor="start" font-size="18" font-family="'Roboto','Nunito Sans','Microsoft YaHei','PingFang SC','Microsoft JhengHei',sans-serif" font-weight="500" font-style="normal" transform="matrix(1,0,0,1,0,0)" svgjs:data="{&quot;leading&quot;:&quot;1.3&quot;}"><tspan font-family="'Roboto','Nunito Sans','Microsoft YaHei','PingFang SC','Microsoft JhengHei',sans-serif" font-size="18" font-style="normal" font-weight="500" fill="#ffffff" text-decoration="none" dy="18" x="0">‎功能</tspan></text></g></g></g></g></g></g><g data-name="branch" transform="matrix(1,0,0,1,475,71)"><g data-name="topic"><g data-name="topic-shape-group"><path d="M  -236 15L 236 15z" data-name="topic-shape" fill="none" stroke="#a4a8a3" stroke-width="2"></path><path d="M0 0 " data-name="topic-shape-fill" fill="none" stroke="#ffffff"></path><g data-name="topic-content" transform="matrix(1,0,0,1,-228,-8)"><g data-name="inner-element-group"><g data-name="topic-title-text-group"><text fill="#ffffff" text-decoration="none" text-anchor="start" font-size="14" font-family="'Roboto','Nunito Sans','Microsoft YaHei','PingFang SC','Microsoft JhengHei',sans-serif" font-weight="400" font-style="normal" transform="matrix(1,0,0,1,0,0)" svgjs:data="{&quot;leading&quot;:&quot;1.3&quot;}"><tspan font-family="'Roboto','Nunito Sans','Microsoft YaHei','PingFang SC','Microsoft JhengHei',sans-serif" font-size="14" font-style="normal" font-weight="400" fill="#ffffff" text-decoration="none" dy="14" x="0">‎https://github.com/hinnncom/hiprint/blob/master/hiprint/hiprint.bundle.js</tspan></text></g></g></g></g></g></g><g data-name="branch" transform="matrix(1,0,0,1,348,111)"><g data-name="topic"><g data-name="topic-shape-group"><path d="M  -109 15L 109 15z" data-name="topic-shape" fill="none" stroke="#a4a8a3" stroke-width="2"></path><path d="M0 0 " data-name="topic-shape-fill" fill="none" stroke="#ffffff"></path><g data-name="topic-content" transform="matrix(1,0,0,1,-101,-8)"><g data-name="inner-element-group"><g data-name="topic-title-text-group"><text fill="#ffffff" text-decoration="none" text-anchor="start" font-size="14" font-family="'Roboto','Nunito Sans','Microsoft YaHei','PingFang SC','Microsoft JhengHei',sans-serif" font-weight="400" font-style="normal" transform="matrix(1,0,0,1,0,0)" svgjs:data="{&quot;leading&quot;:&quot;1.3&quot;}"><tspan font-family="'Roboto','Nunito Sans','Microsoft YaHei','PingFang SC','Microsoft JhengHei',sans-serif" font-size="14" font-style="normal" font-weight="400" fill="#ffffff" text-decoration="none" dy="14" x="0">‎https://grapesjs.com/demo.html</tspan></text></g></g></g></g></g></g><g data-name="branch" transform="matrix(1,0,0,1,175,106)"><g data-name="topic"><g data-name="topic-shape-group"><path d="M -29 -23L 30 -23Q 38 -23  38 -15L 38 16Q 38 24  30 24L -29 24Q -37 24  -37 16L -37 -15Q -37 -23  -29 -23" data-name="topic-shape" fill="none" stroke="#a4a8a3" stroke-width="2"></path><path d="M0 0 " data-name="topic-shape-fill" fill="none" stroke="#ffffff"></path><g data-name="topic-content" transform="matrix(1,0,0,1,-18,-12)"><g data-name="inner-element-group"><g data-name="topic-title-text-group"><text fill="#ffffff" text-decoration="none" text-anchor="start" font-size="18" font-family="'Roboto','Nunito Sans','Microsoft YaHei','PingFang SC','Microsoft JhengHei',sans-serif" font-weight="500" font-style="normal" transform="matrix(1,0,0,1,0,0)" svgjs:data="{&quot;leading&quot;:&quot;1.3&quot;}"><tspan font-family="'Roboto','Nunito Sans','Microsoft YaHei','PingFang SC','Microsoft JhengHei',sans-serif" font-size="18" font-style="normal" font-weight="500" fill="#ffffff" text-decoration="none" dy="18" x="0">‎开源</tspan></text></g></g></g></g></g></g><g data-name="branch" transform="matrix(1,0,0,1,0,0)"><g data-name="topic"><g data-name="topic-shape-group"><path d="M -78 -34.5L 79 -34.5Q 87 -34.5  87 -26.5L 87 27.5Q 87 35.5  79 35.5L -78 35.5Q -86 35.5  -86 27.5L -86 -26.5Q -86 -34.5  -78 -34.5" data-name="topic-shape" fill="#68a47c" stroke="#a4a8a3" stroke-width="2"></path><path d="M0 0 " data-name="topic-shape-fill" fill="#68a47c" stroke="#ffffff"></path><g data-name="topic-content" transform="matrix(1,0,0,1,-56,-18.5)"><g data-name="inner-element-group"><g data-name="topic-title-text-group"><text fill="#ffffff" text-decoration="none" text-anchor="middle" font-size="28" font-family="'Roboto','Nunito Sans','Microsoft YaHei','PingFang SC','Microsoft JhengHei',sans-serif" font-weight="700" font-style="normal" transform="matrix(1,0,0,1,56,0)" svgjs:data="{&quot;leading&quot;:&quot;1.3&quot;}"><tspan font-family="'Roboto','Nunito Sans','Microsoft YaHei','PingFang SC','Microsoft JhengHei',sans-serif" font-size="28" font-style="normal" font-weight="700" fill="#ffffff" text-decoration="none" dy="28" x="0">‎模板编辑</tspan></text></g></g></g></g></g></g></g></g></svg>