<svg xmlns="http://www.w3.org/2000/svg" version="1.1" xmlns:xlink="http://www.w3.org/1999/xlink" xmlns:svgjs="http://svgjs.dev/svgjs" style="background-color: rgb(60,60,60);" width="455" height="222"><g data-name="sheet" transform="matrix(1,0,0,1,201,111)"><g data-name="connection-container"><path data-name="connection" d="M 39.33333333333333 0L 39.33333333333333 0Q 53.266666666666666 -84 109 -84" fill="none" stroke="#ffa787" stroke-width="3" clip-path="url(&quot;#SvgjsClipPath1136&quot;)"></path><path data-name="connection" d="M 39.33333333333333 0L 39.33333333333333 0Q 53.266666666666666 0 109 0" fill="none" stroke="#f19896" stroke-width="3" clip-path="url(&quot;#SvgjsClipPath1137&quot;)"></path><path data-name="connection" d="M 39.33333333333333 0L 39.33333333333333 0Q 53.266666666666666 84 109 84" fill="none" stroke="#dec4ca" stroke-width="3" clip-path="url(&quot;#SvgjsClipPath1138&quot;)"></path><path data-name="connection" d="M -39.33333333333333 0L -39.33333333333333 0Q -53.266666666666666 62 -109 62" fill="none" stroke="#5bafc4" stroke-width="3" clip-path="url(&quot;#SvgjsClipPath1139&quot;)"></path></g><g data-name="branch-container"><g data-name="branch" transform="matrix(1,0,0,1,154,-84)"><g data-name="topic"><g data-name="topic-shape-group"><path d="M -37 -22L 37 -22Q 45 -22  45 -14L 45 14Q 45 22  37 22L -37 22Q -45 22  -45 14L -45 -14Q -45 -22  -37 -22" data-name="topic-shape" fill="#3c3c3c" stroke="#ffa787" stroke-width="0"></path><path d="M0 0 " data-name="topic-shape-fill" fill="#3c3c3c" stroke="#ffffff"></path><g data-name="topic-content" transform="matrix(1,0,0,1,-27,-12)"><g data-name="inner-element-group"><g data-name="topic-title-text-group"><text fill="#ffffff" text-decoration="none" text-anchor="start" font-size="18" font-family="'NeverMind','Nunito Sans','Microsoft YaHei','PingFang SC','Microsoft JhengHei',sans-serif" font-weight="500" font-style="normal" transform="matrix(1,0,0,1,0,0)" svgjs:data="{&quot;leading&quot;:&quot;1.3&quot;}"><tspan font-family="'NeverMind','Nunito Sans','Microsoft YaHei','PingFang SC','Microsoft JhengHei',sans-serif" font-size="18" font-style="normal" font-weight="500" fill="#ffffff" text-decoration="none" dy="18" x="0">‎小程序</tspan></text></g></g></g></g></g></g><g data-name="branch" transform="matrix(1,0,0,1,144.5,0)"><g data-name="topic"><g data-name="topic-shape-group"><path d="M -27.5 -22L 27.5 -22Q 35.5 -22  35.5 -14L 35.5 14Q 35.5 22  27.5 22L -27.5 22Q -35.5 22  -35.5 14L -35.5 -14Q -35.5 -22  -27.5 -22" data-name="topic-shape" fill="#3c3c3c" stroke="#f19896" stroke-width="0"></path><path d="M0 0 " data-name="topic-shape-fill" fill="#3c3c3c" stroke="#ffffff"></path><g data-name="topic-content" transform="matrix(1,0,0,1,-17.5,-12)"><g data-name="inner-element-group"><g data-name="topic-title-text-group"><text fill="#ffffff" text-decoration="none" text-anchor="start" font-size="18" font-family="'NeverMind','Nunito Sans','Microsoft YaHei','PingFang SC','Microsoft JhengHei',sans-serif" font-weight="500" font-style="normal" transform="matrix(1,0,0,1,0,0)" svgjs:data="{&quot;leading&quot;:&quot;1.3&quot;}"><tspan font-family="'NeverMind','Nunito Sans','Microsoft YaHei','PingFang SC','Microsoft JhengHei',sans-serif" font-size="18" font-style="normal" font-weight="500" fill="#ffffff" text-decoration="none" dy="18" x="0">‎web</tspan></text></g></g></g></g></g></g><g data-name="branch" transform="matrix(1,0,0,1,176.5,84)"><g data-name="topic"><g data-name="topic-shape-group"><path d="M -59.5 -22L 59.5 -22Q 67.5 -22  67.5 -14L 67.5 14Q 67.5 22  59.5 22L -59.5 22Q -67.5 22  -67.5 14L -67.5 -14Q -67.5 -22  -59.5 -22" data-name="topic-shape" fill="#3c3c3c" stroke="#dec4ca" stroke-width="0"></path><path d="M0 0 " data-name="topic-shape-fill" fill="#3c3c3c" stroke="#ffffff"></path><g data-name="topic-content" transform="matrix(1,0,0,1,-49.5,-12)"><g data-name="inner-element-group"><g data-name="topic-title-text-group"><text fill="#ffffff" text-decoration="none" text-anchor="start" font-size="18" font-family="'NeverMind','Nunito Sans','Microsoft YaHei','PingFang SC','Microsoft JhengHei',sans-serif" font-weight="500" font-style="normal" transform="matrix(1,0,0,1,0,0)" svgjs:data="{&quot;leading&quot;:&quot;1.3&quot;}"><tspan font-family="'NeverMind','Nunito Sans','Microsoft YaHei','PingFang SC','Microsoft JhengHei',sans-serif" font-size="18" font-style="normal" font-weight="500" fill="#ffffff" text-decoration="none" dy="18" x="0">‎react native</tspan></text></g></g></g></g></g></g><g data-name="branch" transform="matrix(1,0,0,1,-155,62)"><g data-name="topic"><g data-name="topic-shape-group"><path d="M -38 -22L 38 -22Q 46 -22  46 -14L 46 14Q 46 22  38 22L -38 22Q -46 22  -46 14L -46 -14Q -46 -22  -38 -22" data-name="topic-shape" fill="#3c3c3c" stroke="#5bafc4" stroke-width="0"></path><path d="M0 0 " data-name="topic-shape-fill" fill="#3c3c3c" stroke="#ffffff"></path><g data-name="topic-content" transform="matrix(1,0,0,1,-28,-12)"><g data-name="inner-element-group"><g data-name="topic-title-text-group"><text fill="#ffffff" text-decoration="none" text-anchor="start" font-size="18" font-family="'NeverMind','Nunito Sans','Microsoft YaHei','PingFang SC','Microsoft JhengHei',sans-serif" font-weight="500" font-style="normal" transform="matrix(1,0,0,1,0,0)" svgjs:data="{&quot;leading&quot;:&quot;1.3&quot;}"><tspan font-family="'NeverMind','Nunito Sans','Microsoft YaHei','PingFang SC','Microsoft JhengHei',sans-serif" font-size="18" font-style="normal" font-weight="500" fill="#ffffff" text-decoration="none" dy="18" x="0">‎Hybrid</tspan></text></g></g></g></g></g></g><g data-name="branch" transform="matrix(1,0,0,1,0,0)"><g data-name="topic"><g data-name="topic-shape-group"><path d="M -51 -35L 51 -35Q 59 -35  59 -27L 59 27Q 59 35  51 35L -51 35Q -59 35  -59 27L -59 -27Q -59 -35  -51 -35" data-name="topic-shape" fill="#3c3c3c" stroke="#85ce9e" stroke-width="0"></path><path d="M0 0 " data-name="topic-shape-fill" fill="#3c3c3c" stroke="#ffffff"></path><g data-name="topic-content" transform="matrix(1,0,0,1,-30,-20)"><g data-name="inner-element-group"><g data-name="topic-title-text-group"><text fill="#ffffff" text-decoration="none" text-anchor="middle" font-size="30" font-family="'NeverMind','Nunito Sans','Microsoft YaHei','PingFang SC','Microsoft JhengHei',sans-serif" font-weight="500" font-style="normal" transform="matrix(1,0,0,1,30,0)" svgjs:data="{&quot;leading&quot;:&quot;1.3&quot;}"><tspan font-family="'NeverMind','Nunito Sans','Microsoft YaHei','PingFang SC','Microsoft JhengHei',sans-serif" font-size="30" font-style="normal" font-weight="500" fill="#ffffff" text-decoration="none" dy="30" x="0">‎跨端</tspan></text></g></g></g></g></g></g></g></g><defs><clipPath id="SvgjsClipPath1136"><path d="M -51 -35L 51 -35Q 59 -35  59 -27L 59 27Q 59 35  51 35L -51 35Q -59 35  -59 27L -59 -27Q -59 -35  -51 -35 
  M -10000 -10000
  L 10000 -10000
  L 10000 10000
  L -10000 10000
" fill="black" transform="translate(0 0)" clip-rule="evenodd"></path></clipPath><clipPath id="SvgjsClipPath1137"><path d="M -51 -35L 51 -35Q 59 -35  59 -27L 59 27Q 59 35  51 35L -51 35Q -59 35  -59 27L -59 -27Q -59 -35  -51 -35 
  M -10000 -10000
  L 10000 -10000
  L 10000 10000
  L -10000 10000
" fill="black" transform="translate(0 0)" clip-rule="evenodd"></path></clipPath><clipPath id="SvgjsClipPath1138"><path d="M -51 -35L 51 -35Q 59 -35  59 -27L 59 27Q 59 35  51 35L -51 35Q -59 35  -59 27L -59 -27Q -59 -35  -51 -35 
  M -10000 -10000
  L 10000 -10000
  L 10000 10000
  L -10000 10000
" fill="black" transform="translate(0 0)" clip-rule="evenodd"></path></clipPath><clipPath id="SvgjsClipPath1139"><path d="M -51 -35L 51 -35Q 59 -35  59 -27L 59 27Q 59 35  51 35L -51 35Q -59 35  -59 27L -59 -27Q -59 -35  -51 -35 
  M -10000 -10000
  L 10000 -10000
  L 10000 10000
  L -10000 10000
" fill="black" transform="translate(0 0)" clip-rule="evenodd"></path></clipPath></defs></svg>