<svg xmlns="http://www.w3.org/2000/svg" version="1.1" xmlns:xlink="http://www.w3.org/1999/xlink" xmlns:svgjs="http://svgjs.dev/svgjs" style="background-color: rgb(255,255,255);" width="631.25" height="760"><g data-name="sheet" transform="matrix(1,0,0,1,130.25,448.5)"><g data-name="connection-container"><path data-name="connection" d="M 214 -284.5L 227 -284.5L 227 -420.5Q 227 -428.5 235 -428.5L 240 -428.5" fill="none" stroke="#141414" stroke-width="2"></path><path data-name="connection" d="M 214 -284.5L 227 -284.5L 227 -384.5Q 227 -392.5 235 -392.5L 240 -392.5" fill="none" stroke="#141414" stroke-width="2"></path><path data-name="connection" d="M 214 -284.5L 227 -284.5L 227 -348.5Q 227 -356.5 235 -356.5L 240 -356.5" fill="none" stroke="#141414" stroke-width="2"></path><path data-name="connection" d="M 214 -284.5L 227 -284.5L 227 -312.5Q 227 -320.5 235 -320.5L 240 -320.5" fill="none" stroke="#141414" stroke-width="2"></path><path data-name="connection" d="M 214 -284.5L 227 -284.5L 227 -284.5Q 227 -284.5 235 -284.5L 240 -284.5" fill="none" stroke="#141414" stroke-width="2"></path><path data-name="connection" d="M 214 -284.5L 227 -284.5L 227 -256.5Q 227 -248.5 235 -248.5L 240 -248.5" fill="none" stroke="#141414" stroke-width="2"></path><path data-name="connection" d="M 214 -284.5L 227 -284.5L 227 -220.5Q 227 -212.5 235 -212.5L 240 -212.5" fill="none" stroke="#141414" stroke-width="2"></path><path data-name="connection" d="M 214 -284.5L 227 -284.5L 227 -184.5Q 227 -176.5 235 -176.5L 240 -176.5" fill="none" stroke="#141414" stroke-width="2"></path><path data-name="connection" d="M 214 -284.5L 227 -284.5L 227 -148.5Q 227 -140.5 235 -140.5L 240 -140.5" fill="none" stroke="#141414" stroke-width="2"></path><path data-name="connection" d="M 11.691015240683804 0L 11.691015240683804 0Q 34.152812192547046 -284.5 124 -284.5" fill="none" stroke="#141414" stroke-width="3" clip-path="url(&quot;#SvgjsClipPath1140&quot;)"></path><path data-name="connection" d="M 196 68.5L 209 68.5L 209 -67.5Q 209 -75.5 217 -75.5L 222 -75.5" fill="none" stroke="#141414" stroke-width="2"></path><path data-name="connection" d="M 196 68.5L 209 68.5L 209 -31.5Q 209 -39.5 217 -39.5L 222 -39.5" fill="none" stroke="#141414" stroke-width="2"></path><path data-name="connection" d="M 196 68.5L 209 68.5L 209 4.5Q 209 -3.5 217 -3.5L 222 -3.5" fill="none" stroke="#141414" stroke-width="2"></path><path data-name="connection" d="M 196 68.5L 209 68.5L 209 40.5Q 209 32.5 217 32.5L 222 32.5" fill="none" stroke="#141414" stroke-width="2"></path><path data-name="connection" d="M 196 68.5L 209 68.5L 209 68.5Q 209 68.5 217 68.5L 222 68.5" fill="none" stroke="#141414" stroke-width="2"></path><path data-name="connection" d="M 196 68.5L 209 68.5L 209 96.5Q 209 104.5 217 104.5L 222 104.5" fill="none" stroke="#141414" stroke-width="2"></path><path data-name="connection" d="M 196 68.5L 209 68.5L 209 132.5Q 209 140.5 217 140.5L 222 140.5" fill="none" stroke="#141414" stroke-width="2"></path><path data-name="connection" d="M 196 68.5L 209 68.5L 209 168.5Q 209 176.5 217 176.5L 222 176.5" fill="none" stroke="#141414" stroke-width="2"></path><path data-name="connection" d="M 196 68.5L 209 68.5L 209 204.5Q 209 212.5 217 212.5L 222 212.5" fill="none" stroke="#141414" stroke-width="2"></path><path data-name="connection" d="M 49.33333333333333 0L 49.33333333333333 0Q 64.26666666666667 68.5 124 68.5" fill="none" stroke="#141414" stroke-width="3" clip-path="url(&quot;#SvgjsClipPath1141&quot;)"></path><path data-name="connection" d="M 11.691015240683804 0L 11.691015240683804 0Q 34.152812192547046 284.5 124 284.5" fill="none" stroke="#141414" stroke-width="3" clip-path="url(&quot;#SvgjsClipPath1142&quot;)"></path></g><g data-name="branch-container"><g data-name="branch" transform="matrix(1,0,0,1,357.5,-428.5)"><g data-name="topic"><g data-name="topic-shape-group"><path d="M -109.5 -15L 109.5 -15Q 117.5 -15  117.5 -7L 117.5 7Q 117.5 15  109.5 15L -109.5 15Q -117.5 15  -117.5 7L -117.5 -7Q -117.5 -15  -109.5 -15" data-name="topic-shape" fill="#eeeeee" stroke="#141414" stroke-width="0"></path><path d="M0 0 " data-name="topic-shape-fill" fill="#eeeeee" stroke="#ffffff"></path><g data-name="topic-content" transform="matrix(1,0,0,1,-111.5,-9)"><g data-name="inner-element-group"><g data-name="topic-title-text-group"><text fill="#141414" text-decoration="none" text-anchor="middle" font-size="14" font-family="'NeverMind','Nunito Sans','Microsoft YaHei','PingFang SC','Microsoft JhengHei',sans-serif" font-weight="400" font-style="normal" transform="matrix(1,0,0,1,111.5,0)" svgjs:data="{&quot;leading&quot;:&quot;1.3&quot;}"><tspan font-family="'NeverMind','Nunito Sans','Microsoft YaHei','PingFang SC','Microsoft JhengHei',sans-serif" font-size="14" font-style="normal" font-weight="400" fill="#141414" text-decoration="none" dy="14" x="0">‎1. fiber原理，fiber写起来有哪些限制</tspan></text></g></g></g></g></g></g><g data-name="branch" transform="matrix(1,0,0,1,347,-392.5)"><g data-name="topic"><g data-name="topic-shape-group"><path d="M -99 -15L 99 -15Q 107 -15  107 -7L 107 7Q 107 15  99 15L -99 15Q -107 15  -107 7L -107 -7Q -107 -15  -99 -15" data-name="topic-shape" fill="#eeeeee" stroke="#141414" stroke-width="0"></path><path d="M0 0 " data-name="topic-shape-fill" fill="#eeeeee" stroke="#ffffff"></path><g data-name="topic-content" transform="matrix(1,0,0,1,-101,-9)"><g data-name="inner-element-group"><g data-name="topic-title-text-group"><text fill="#141414" text-decoration="none" text-anchor="middle" font-size="14" font-family="'NeverMind','Nunito Sans','Microsoft YaHei','PingFang SC','Microsoft JhengHei',sans-serif" font-weight="400" font-style="normal" transform="matrix(1,0,0,1,101,0)" svgjs:data="{&quot;leading&quot;:&quot;1.3&quot;}"><tspan font-family="'NeverMind','Nunito Sans','Microsoft YaHei','PingFang SC','Microsoft JhengHei',sans-serif" font-size="14" font-style="normal" font-weight="400" fill="#141414" text-decoration="none" dy="14" x="0">‎2. react hooks原理，有什么优点</tspan></text></g></g></g></g></g></g><g data-name="branch" transform="matrix(1,0,0,1,301,-356.5)"><g data-name="topic"><g data-name="topic-shape-group"><path d="M -53 -15L 53 -15Q 61 -15  61 -7L 61 7Q 61 15  53 15L -53 15Q -61 15  -61 7L -61 -7Q -61 -15  -53 -15" data-name="topic-shape" fill="#eeeeee" stroke="#141414" stroke-width="0"></path><path d="M0 0 " data-name="topic-shape-fill" fill="#eeeeee" stroke="#ffffff"></path><g data-name="topic-content" transform="matrix(1,0,0,1,-55,-9)"><g data-name="inner-element-group"><g data-name="topic-title-text-group"><text fill="#141414" text-decoration="none" text-anchor="middle" font-size="14" font-family="'NeverMind','Nunito Sans','Microsoft YaHei','PingFang SC','Microsoft JhengHei',sans-serif" font-weight="400" font-style="normal" transform="matrix(1,0,0,1,55,0)" svgjs:data="{&quot;leading&quot;:&quot;1.3&quot;}"><tspan font-family="'NeverMind','Nunito Sans','Microsoft YaHei','PingFang SC','Microsoft JhengHei',sans-serif" font-size="14" font-style="normal" font-weight="400" fill="#141414" text-decoration="none" dy="14" x="0">‎3. react与vue区别</tspan></text></g></g></g></g></g></g><g data-name="branch" transform="matrix(1,0,0,1,335,-320.5)"><g data-name="topic"><g data-name="topic-shape-group"><path d="M -87 -15L 87 -15Q 95 -15  95 -7L 95 7Q 95 15  87 15L -87 15Q -95 15  -95 7L -95 -7Q -95 -15  -87 -15" data-name="topic-shape" fill="#eeeeee" stroke="#141414" stroke-width="0"></path><path d="M0 0 " data-name="topic-shape-fill" fill="#eeeeee" stroke="#ffffff"></path><g data-name="topic-content" transform="matrix(1,0,0,1,-89,-9)"><g data-name="inner-element-group"><g data-name="topic-title-text-group"><text fill="#141414" text-decoration="none" text-anchor="middle" font-size="14" font-family="'NeverMind','Nunito Sans','Microsoft YaHei','PingFang SC','Microsoft JhengHei',sans-serif" font-weight="400" font-style="normal" transform="matrix(1,0,0,1,89,0)" svgjs:data="{&quot;leading&quot;:&quot;1.3&quot;}"><tspan font-family="'NeverMind','Nunito Sans','Microsoft YaHei','PingFang SC','Microsoft JhengHei',sans-serif" font-size="14" font-style="normal" font-weight="400" fill="#141414" text-decoration="none" dy="14" x="0">‎4. 为什么用img标签上报接口</tspan></text></g></g></g></g></g></g><g data-name="branch" transform="matrix(1,0,0,1,359,-284.5)"><g data-name="topic"><g data-name="topic-shape-group"><path d="M -111 -15L 111 -15Q 119 -15  119 -7L 119 7Q 119 15  111 15L -111 15Q -119 15  -119 7L -119 -7Q -119 -15  -111 -15" data-name="topic-shape" fill="#eeeeee" stroke="#141414" stroke-width="0"></path><path d="M0 0 " data-name="topic-shape-fill" fill="#eeeeee" stroke="#ffffff"></path><g data-name="topic-content" transform="matrix(1,0,0,1,-113,-9)"><g data-name="inner-element-group"><g data-name="topic-title-text-group"><text fill="#141414" text-decoration="none" text-anchor="middle" font-size="14" font-family="'NeverMind','Nunito Sans','Microsoft YaHei','PingFang SC','Microsoft JhengHei',sans-serif" font-weight="400" font-style="normal" transform="matrix(1,0,0,1,113,0)" svgjs:data="{&quot;leading&quot;:&quot;1.3&quot;}"><tspan font-family="'NeverMind','Nunito Sans','Microsoft YaHei','PingFang SC','Microsoft JhengHei',sans-serif" font-size="14" font-style="normal" font-weight="400" fill="#141414" text-decoration="none" dy="14" x="0">‎5. 小程序跟网页开发对比有哪些限制</tspan></text></g></g></g></g></g></g><g data-name="branch" transform="matrix(1,0,0,1,345,-248.5)"><g data-name="topic"><g data-name="topic-shape-group"><path d="M -97 -15L 97 -15Q 105 -15  105 -7L 105 7Q 105 15  97 15L -97 15Q -105 15  -105 7L -105 -7Q -105 -15  -97 -15" data-name="topic-shape" fill="#eeeeee" stroke="#141414" stroke-width="0"></path><path d="M0 0 " data-name="topic-shape-fill" fill="#eeeeee" stroke="#ffffff"></path><g data-name="topic-content" transform="matrix(1,0,0,1,-99,-9)"><g data-name="inner-element-group"><g data-name="topic-title-text-group"><text fill="#141414" text-decoration="none" text-anchor="middle" font-size="14" font-family="'NeverMind','Nunito Sans','Microsoft YaHei','PingFang SC','Microsoft JhengHei',sans-serif" font-weight="400" font-style="normal" transform="matrix(1,0,0,1,99,0)" svgjs:data="{&quot;leading&quot;:&quot;1.3&quot;}"><tspan font-family="'NeverMind','Nunito Sans','Microsoft YaHei','PingFang SC','Microsoft JhengHei',sans-serif" font-size="14" font-style="normal" font-weight="400" fill="#141414" text-decoration="none" dy="14" x="0">‎6. 小程序双线程通信有哪些优点</tspan></text></g></g></g></g></g></g><g data-name="branch" transform="matrix(1,0,0,1,322.5,-212.5)"><g data-name="topic"><g data-name="topic-shape-group"><path d="M -74.5 -15L 74.5 -15Q 82.5 -15  82.5 -7L 82.5 7Q 82.5 15  74.5 15L -74.5 15Q -82.5 15  -82.5 7L -82.5 -7Q -82.5 -15  -74.5 -15" data-name="topic-shape" fill="#eeeeee" stroke="#141414" stroke-width="0"></path><path d="M0 0 " data-name="topic-shape-fill" fill="#eeeeee" stroke="#ffffff"></path><g data-name="topic-content" transform="matrix(1,0,0,1,-76.5,-9)"><g data-name="inner-element-group"><g data-name="topic-title-text-group"><text fill="#141414" text-decoration="none" text-anchor="middle" font-size="14" font-family="'NeverMind','Nunito Sans','Microsoft YaHei','PingFang SC','Microsoft JhengHei',sans-serif" font-weight="400" font-style="normal" transform="matrix(1,0,0,1,76.5,0)" svgjs:data="{&quot;leading&quot;:&quot;1.3&quot;}"><tspan font-family="'NeverMind','Nunito Sans','Microsoft YaHei','PingFang SC','Microsoft JhengHei',sans-serif" font-size="14" font-style="normal" font-weight="400" fill="#141414" text-decoration="none" dy="14" x="0">‎7. js异常监控有哪些方式</tspan></text></g></g></g></g></g></g><g data-name="branch" transform="matrix(1,0,0,1,331,-176.5)"><g data-name="topic"><g data-name="topic-shape-group"><path d="M -83 -15L 83 -15Q 91 -15  91 -7L 91 7Q 91 15  83 15L -83 15Q -91 15  -91 7L -91 -7Q -91 -15  -83 -15" data-name="topic-shape" fill="#eeeeee" stroke="#141414" stroke-width="0"></path><path d="M0 0 " data-name="topic-shape-fill" fill="#eeeeee" stroke="#ffffff"></path><g data-name="topic-content" transform="matrix(1,0,0,1,-85,-9)"><g data-name="inner-element-group"><g data-name="topic-title-text-group"><text fill="#141414" text-decoration="none" text-anchor="middle" font-size="14" font-family="'NeverMind','Nunito Sans','Microsoft YaHei','PingFang SC','Microsoft JhengHei',sans-serif" font-weight="400" font-style="normal" transform="matrix(1,0,0,1,85,0)" svgjs:data="{&quot;leading&quot;:&quot;1.3&quot;}"><tspan font-family="'NeverMind','Nunito Sans','Microsoft YaHei','PingFang SC','Microsoft JhengHei',sans-serif" font-size="14" font-style="normal" font-weight="400" fill="#141414" text-decoration="none" dy="14" x="0">‎8. 前端性能监控有哪些方式</tspan></text></g></g></g></g></g></g><g data-name="branch" transform="matrix(1,0,0,1,344,-140.5)"><g data-name="topic"><g data-name="topic-shape-group"><path d="M -96 -15L 96 -15Q 104 -15  104 -7L 104 7Q 104 15  96 15L -96 15Q -104 15  -104 7L -104 -7Q -104 -15  -96 -15" data-name="topic-shape" fill="#eeeeee" stroke="#141414" stroke-width="0"></path><path d="M0 0 " data-name="topic-shape-fill" fill="#eeeeee" stroke="#ffffff"></path><g data-name="topic-content" transform="matrix(1,0,0,1,-98,-9)"><g data-name="inner-element-group"><g data-name="topic-title-text-group"><text fill="#141414" text-decoration="none" text-anchor="middle" font-size="14" font-family="'NeverMind','Nunito Sans','Microsoft YaHei','PingFang SC','Microsoft JhengHei',sans-serif" font-weight="400" font-style="normal" transform="matrix(1,0,0,1,98,0)" svgjs:data="{&quot;leading&quot;:&quot;1.3&quot;}"><tspan font-family="'NeverMind','Nunito Sans','Microsoft YaHei','PingFang SC','Microsoft JhengHei',sans-serif" font-size="14" font-style="normal" font-weight="400" fill="#141414" text-decoration="none" dy="14" x="0">‎9. 编码：对比两个npm包的版本</tspan></text></g></g></g></g></g></g><g data-name="branch" transform="matrix(1,0,0,1,169,-284.5)"><g data-name="topic"><g data-name="topic-shape-group"><path d="M -37 -22L 37 -22Q 45 -22  45 -14L 45 14Q 45 22  37 22L -37 22Q -45 22  -45 14L -45 -14Q -45 -22  -37 -22" data-name="topic-shape" fill="#eeeeee" stroke="#141414" stroke-width="0"></path><path d="M0 0 " data-name="topic-shape-fill" fill="#eeeeee" stroke="#ffffff"></path><g data-name="topic-content" transform="matrix(1,0,0,1,-27,-12)"><g data-name="inner-element-group"><g data-name="topic-title-text-group"><text fill="#141414" text-decoration="none" text-anchor="start" font-size="18" font-family="'NeverMind','Nunito Sans','Microsoft YaHei','PingFang SC','Microsoft JhengHei',sans-serif" font-weight="500" font-style="normal" transform="matrix(1,0,0,1,0,0)" svgjs:data="{&quot;leading&quot;:&quot;1.3&quot;}"><tspan font-family="'NeverMind','Nunito Sans','Microsoft YaHei','PingFang SC','Microsoft JhengHei',sans-serif" font-size="18" font-style="normal" font-weight="500" fill="#141414" text-decoration="none" dy="18" x="0">‎猿辅导</tspan></text></g></g></g></g></g></g><g data-name="branch" transform="matrix(1,0,0,1,356.5,-75.5)"><g data-name="topic"><g data-name="topic-shape-group"><path d="M -126.5 -15L 126.5 -15Q 134.5 -15  134.5 -7L 134.5 7Q 134.5 15  126.5 15L -126.5 15Q -134.5 15  -134.5 7L -134.5 -7Q -134.5 -15  -126.5 -15" data-name="topic-shape" fill="#eeeeee" stroke="#141414" stroke-width="0"></path><path d="M0 0 " data-name="topic-shape-fill" fill="#eeeeee" stroke="#ffffff"></path><g data-name="topic-content" transform="matrix(1,0,0,1,-128.5,-9)"><g data-name="inner-element-group"><g data-name="topic-title-text-group"><text fill="#141414" text-decoration="none" text-anchor="middle" font-size="14" font-family="'NeverMind','Nunito Sans','Microsoft YaHei','PingFang SC','Microsoft JhengHei',sans-serif" font-weight="400" font-style="normal" transform="matrix(1,0,0,1,128.5,0)" svgjs:data="{&quot;leading&quot;:&quot;1.3&quot;}"><tspan font-family="'NeverMind','Nunito Sans','Microsoft YaHei','PingFang SC','Microsoft JhengHei',sans-serif" font-size="14" font-style="normal" font-weight="400" fill="#141414" text-decoration="none" dy="14" x="0">‎1. useState原理，useState与setState区别</tspan></text></g></g></g></g></g></g><g data-name="branch" transform="matrix(1,0,0,1,299,-39.5)"><g data-name="topic"><g data-name="topic-shape-group"><path d="M -69 -15L 69 -15Q 77 -15  77 -7L 77 7Q 77 15  69 15L -69 15Q -77 15  -77 7L -77 -7Q -77 -15  -69 -15" data-name="topic-shape" fill="#eeeeee" stroke="#141414" stroke-width="0"></path><path d="M0 0 " data-name="topic-shape-fill" fill="#eeeeee" stroke="#ffffff"></path><g data-name="topic-content" transform="matrix(1,0,0,1,-71,-9)"><g data-name="inner-element-group"><g data-name="topic-title-text-group"><text fill="#141414" text-decoration="none" text-anchor="middle" font-size="14" font-family="'NeverMind','Nunito Sans','Microsoft YaHei','PingFang SC','Microsoft JhengHei',sans-serif" font-weight="400" font-style="normal" transform="matrix(1,0,0,1,71,0)" svgjs:data="{&quot;leading&quot;:&quot;1.3&quot;}"><tspan font-family="'NeverMind','Nunito Sans','Microsoft YaHei','PingFang SC','Microsoft JhengHei',sans-serif" font-size="14" font-style="normal" font-weight="400" fill="#141414" text-decoration="none" dy="14" x="0">‎2. 连续子数组最大的和</tspan></text></g></g></g></g></g></g><g data-name="branch" transform="matrix(1,0,0,1,264,-3.5)"><g data-name="topic"><g data-name="topic-shape-group"><path d="M -34 -15L 34 -15Q 42 -15  42 -7L 42 7Q 42 15  34 15L -34 15Q -42 15  -42 7L -42 -7Q -42 -15  -34 -15" data-name="topic-shape" fill="#eeeeee" stroke="#141414" stroke-width="0"></path><path d="M0 0 " data-name="topic-shape-fill" fill="#eeeeee" stroke="#ffffff"></path><g data-name="topic-content" transform="matrix(1,0,0,1,-36,-9)"><g data-name="inner-element-group"><g data-name="topic-title-text-group"><text fill="#141414" text-decoration="none" text-anchor="middle" font-size="14" font-family="'NeverMind','Nunito Sans','Microsoft YaHei','PingFang SC','Microsoft JhengHei',sans-serif" font-weight="400" font-style="normal" transform="matrix(1,0,0,1,36,0)" svgjs:data="{&quot;leading&quot;:&quot;1.3&quot;}"><tspan font-family="'NeverMind','Nunito Sans','Microsoft YaHei','PingFang SC','Microsoft JhengHei',sans-serif" font-size="14" font-style="normal" font-weight="400" fill="#141414" text-decoration="none" dy="14" x="0">‎3. 两数之和</tspan></text></g></g></g></g></g></g><g data-name="branch" transform="matrix(1,0,0,1,306,32.5)"><g data-name="topic"><g data-name="topic-shape-group"><path d="M -76 -15L 76 -15Q 84 -15  84 -7L 84 7Q 84 15  76 15L -76 15Q -84 15  -84 7L -84 -7Q -84 -15  -76 -15" data-name="topic-shape" fill="#eeeeee" stroke="#141414" stroke-width="0"></path><path d="M0 0 " data-name="topic-shape-fill" fill="#eeeeee" stroke="#ffffff"></path><g data-name="topic-content" transform="matrix(1,0,0,1,-78,-9)"><g data-name="inner-element-group"><g data-name="topic-title-text-group"><text fill="#141414" text-decoration="none" text-anchor="middle" font-size="14" font-family="'NeverMind','Nunito Sans','Microsoft YaHei','PingFang SC','Microsoft JhengHei',sans-serif" font-weight="400" font-style="normal" transform="matrix(1,0,0,1,78,0)" svgjs:data="{&quot;leading&quot;:&quot;1.3&quot;}"><tspan font-family="'NeverMind','Nunito Sans','Microsoft YaHei','PingFang SC','Microsoft JhengHei',sans-serif" font-size="14" font-style="normal" font-weight="400" fill="#141414" text-decoration="none" dy="14" x="0">‎4. 实现一个发布订阅模式</tspan></text></g></g></g></g></g></g><g data-name="branch" transform="matrix(1,0,0,1,277.5,68.5)"><g data-name="topic"><g data-name="topic-shape-group"><path d="M -47.5 -15L 47.5 -15Q 55.5 -15  55.5 -7L 55.5 7Q 55.5 15  47.5 15L -47.5 15Q -55.5 15  -55.5 7L -55.5 -7Q -55.5 -15  -47.5 -15" data-name="topic-shape" fill="#eeeeee" stroke="#141414" stroke-width="0"></path><path d="M0 0 " data-name="topic-shape-fill" fill="#eeeeee" stroke="#ffffff"></path><g data-name="topic-content" transform="matrix(1,0,0,1,-49.5,-9)"><g data-name="inner-element-group"><g data-name="topic-title-text-group"><text fill="#141414" text-decoration="none" text-anchor="middle" font-size="14" font-family="'NeverMind','Nunito Sans','Microsoft YaHei','PingFang SC','Microsoft JhengHei',sans-serif" font-weight="400" font-style="normal" transform="matrix(1,0,0,1,49.5,0)" svgjs:data="{&quot;leading&quot;:&quot;1.3&quot;}"><tspan font-family="'NeverMind','Nunito Sans','Microsoft YaHei','PingFang SC','Microsoft JhengHei',sans-serif" font-size="14" font-style="normal" font-weight="400" fill="#141414" text-decoration="none" dy="14" x="0">‎5. LRU缓存算法</tspan></text></g></g></g></g></g></g><g data-name="branch" transform="matrix(1,0,0,1,299,104.5)"><g data-name="topic"><g data-name="topic-shape-group"><path d="M -69 -15L 69 -15Q 77 -15  77 -7L 77 7Q 77 15  69 15L -69 15Q -77 15  -77 7L -77 -7Q -77 -15  -69 -15" data-name="topic-shape" fill="#eeeeee" stroke="#141414" stroke-width="0"></path><path d="M0 0 " data-name="topic-shape-fill" fill="#eeeeee" stroke="#ffffff"></path><g data-name="topic-content" transform="matrix(1,0,0,1,-71,-9)"><g data-name="inner-element-group"><g data-name="topic-title-text-group"><text fill="#141414" text-decoration="none" text-anchor="middle" font-size="14" font-family="'NeverMind','Nunito Sans','Microsoft YaHei','PingFang SC','Microsoft JhengHei',sans-serif" font-weight="400" font-style="normal" transform="matrix(1,0,0,1,71,0)" svgjs:data="{&quot;leading&quot;:&quot;1.3&quot;}"><tspan font-family="'NeverMind','Nunito Sans','Microsoft YaHei','PingFang SC','Microsoft JhengHei',sans-serif" font-size="14" font-style="normal" font-weight="400" fill="#141414" text-decoration="none" dy="14" x="0">‎6. 如何更新SourceMap</tspan></text></g></g></g></g></g></g><g data-name="branch" transform="matrix(1,0,0,1,327.5,140.5)"><g data-name="topic"><g data-name="topic-shape-group"><path d="M -97.5 -15L 97.5 -15Q 105.5 -15  105.5 -7L 105.5 7Q 105.5 15  97.5 15L -97.5 15Q -105.5 15  -105.5 7L -105.5 -7Q -105.5 -15  -97.5 -15" data-name="topic-shape" fill="#eeeeee" stroke="#141414" stroke-width="0"></path><path d="M0 0 " data-name="topic-shape-fill" fill="#eeeeee" stroke="#ffffff"></path><g data-name="topic-content" transform="matrix(1,0,0,1,-99.5,-9)"><g data-name="inner-element-group"><g data-name="topic-title-text-group"><text fill="#141414" text-decoration="none" text-anchor="middle" font-size="14" font-family="'NeverMind','Nunito Sans','Microsoft YaHei','PingFang SC','Microsoft JhengHei',sans-serif" font-weight="400" font-style="normal" transform="matrix(1,0,0,1,99.5,0)" svgjs:data="{&quot;leading&quot;:&quot;1.3&quot;}"><tspan font-family="'NeverMind','Nunito Sans','Microsoft YaHei','PingFang SC','Microsoft JhengHei',sans-serif" font-size="14" font-style="normal" font-weight="400" fill="#141414" text-decoration="none" dy="14" x="0">‎7. react被打包后的js是什么样的</tspan></text></g></g></g></g></g></g><g data-name="branch" transform="matrix(1,0,0,1,289,176.5)"><g data-name="topic"><g data-name="topic-shape-group"><path d="M -59 -15L 59 -15Q 67 -15  67 -7L 67 7Q 67 15  59 15L -59 15Q -67 15  -67 7L -67 -7Q -67 -15  -59 -15" data-name="topic-shape" fill="#eeeeee" stroke="#141414" stroke-width="0"></path><path d="M0 0 " data-name="topic-shape-fill" fill="#eeeeee" stroke="#ffffff"></path><g data-name="topic-content" transform="matrix(1,0,0,1,-61,-9)"><g data-name="inner-element-group"><g data-name="topic-title-text-group"><text fill="#141414" text-decoration="none" text-anchor="middle" font-size="14" font-family="'NeverMind','Nunito Sans','Microsoft YaHei','PingFang SC','Microsoft JhengHei',sans-serif" font-weight="400" font-style="normal" transform="matrix(1,0,0,1,61,0)" svgjs:data="{&quot;leading&quot;:&quot;1.3&quot;}"><tspan font-family="'NeverMind','Nunito Sans','Microsoft YaHei','PingFang SC','Microsoft JhengHei',sans-serif" font-size="14" font-style="normal" font-weight="400" fill="#141414" text-decoration="none" dy="14" x="0">‎8. 埋点sdk架构原理</tspan></text></g></g></g></g></g></g><g data-name="branch" transform="matrix(1,0,0,1,334,212.5)"><g data-name="topic"><g data-name="topic-shape-group"><path d="M -104 -15L 104 -15Q 112 -15  112 -7L 112 7Q 112 15  104 15L -104 15Q -112 15  -112 7L -112 -7Q -112 -15  -104 -15" data-name="topic-shape" fill="#eeeeee" stroke="#141414" stroke-width="0"></path><path d="M0 0 " data-name="topic-shape-fill" fill="#eeeeee" stroke="#ffffff"></path><g data-name="topic-content" transform="matrix(1,0,0,1,-106,-9)"><g data-name="inner-element-group"><g data-name="topic-title-text-group"><text fill="#141414" text-decoration="none" text-anchor="middle" font-size="14" font-family="'NeverMind','Nunito Sans','Microsoft YaHei','PingFang SC','Microsoft JhengHei',sans-serif" font-weight="400" font-style="normal" transform="matrix(1,0,0,1,106,0)" svgjs:data="{&quot;leading&quot;:&quot;1.3&quot;}"><tspan font-family="'NeverMind','Nunito Sans','Microsoft YaHei','PingFang SC','Microsoft JhengHei',sans-serif" font-size="14" font-style="normal" font-weight="400" fill="#141414" text-decoration="none" dy="14" x="0">‎9. 前后端分离如何部署运维（集群</tspan></text></g></g></g></g></g></g><g data-name="branch" transform="matrix(1,0,0,1,160,68.5)"><g data-name="topic"><g data-name="topic-shape-group"><path d="M -28 -22L 28 -22Q 36 -22  36 -14L 36 14Q 36 22  28 22L -28 22Q -36 22  -36 14L -36 -14Q -36 -22  -28 -22" data-name="topic-shape" fill="#eeeeee" stroke="#141414" stroke-width="0"></path><path d="M0 0 " data-name="topic-shape-fill" fill="#eeeeee" stroke="#ffffff"></path><g data-name="topic-content" transform="matrix(1,0,0,1,-18,-12)"><g data-name="inner-element-group"><g data-name="topic-title-text-group"><text fill="#141414" text-decoration="none" text-anchor="start" font-size="18" font-family="'NeverMind','Nunito Sans','Microsoft YaHei','PingFang SC','Microsoft JhengHei',sans-serif" font-weight="500" font-style="normal" transform="matrix(1,0,0,1,0,0)" svgjs:data="{&quot;leading&quot;:&quot;1.3&quot;}"><tspan font-family="'NeverMind','Nunito Sans','Microsoft YaHei','PingFang SC','Microsoft JhengHei',sans-serif" font-size="18" font-style="normal" font-weight="500" fill="#141414" text-decoration="none" dy="18" x="0">‎百度</tspan></text></g></g></g></g></g></g><g data-name="branch" transform="matrix(1,0,0,1,186.5,284.5)"><g data-name="topic"><g data-name="topic-shape-group"><path d="M -54.5 -22L 54.5 -22Q 62.5 -22  62.5 -14L 62.5 14Q 62.5 22  54.5 22L -54.5 22Q -62.5 22  -62.5 14L -62.5 -14Q -62.5 -22  -54.5 -22" data-name="topic-shape" fill="#eeeeee" stroke="#141414" stroke-width="0"></path><path d="M0 0 " data-name="topic-shape-fill" fill="#eeeeee" stroke="#ffffff"></path><g data-name="topic-content" transform="matrix(1,0,0,1,-44.5,-12)"><g data-name="inner-element-group"><g data-name="topic-title-text-group"><text fill="#141414" text-decoration="none" text-anchor="start" font-size="18" font-family="'NeverMind','Nunito Sans','Microsoft YaHei','PingFang SC','Microsoft JhengHei',sans-serif" font-weight="500" font-style="normal" transform="matrix(1,0,0,1,0,0)" svgjs:data="{&quot;leading&quot;:&quot;1.3&quot;}"><tspan font-family="'NeverMind','Nunito Sans','Microsoft YaHei','PingFang SC','Microsoft JhengHei',sans-serif" font-size="18" font-style="normal" font-weight="500" fill="#141414" text-decoration="none" dy="18" x="0">‎分支主题 3</tspan></text></g></g></g></g></g></g><g data-name="branch" transform="matrix(1,0,0,1,0,0)"><g data-name="topic"><g data-name="topic-shape-group"><path d="M -66 -35L 66 -35Q 74 -35  74 -27L 74 27Q 74 35  66 35L -66 35Q -74 35  -74 27L -74 -27Q -74 -35  -66 -35" data-name="topic-shape" fill="#3949ab" stroke="#141414" stroke-width="0"></path><path d="M0 0 " data-name="topic-shape-fill" fill="#3949ab" stroke="#ffffff"></path><g data-name="topic-content" transform="matrix(1,0,0,1,-45,-20)"><g data-name="inner-element-group"><g data-name="topic-title-text-group"><text fill="#ffffff" text-decoration="none" text-anchor="middle" font-size="30" font-family="'NeverMind','Nunito Sans','Microsoft YaHei','PingFang SC','Microsoft JhengHei',sans-serif" font-weight="500" font-style="normal" transform="matrix(1,0,0,1,45,0)" svgjs:data="{&quot;leading&quot;:&quot;1.3&quot;}"><tspan font-family="'NeverMind','Nunito Sans','Microsoft YaHei','PingFang SC','Microsoft JhengHei',sans-serif" font-size="30" font-style="normal" font-weight="500" fill="#ffffff" text-decoration="none" dy="30" x="0">‎面试题</tspan></text></g></g></g></g></g></g></g></g><defs><clipPath id="SvgjsClipPath1140"><path d="M -66 -35L 66 -35Q 74 -35  74 -27L 74 27Q 74 35  66 35L -66 35Q -74 35  -74 27L -74 -27Q -74 -35  -66 -35 
  M -10000 -10000
  L 10000 -10000
  L 10000 10000
  L -10000 10000
" fill="black" transform="translate(0 0)" clip-rule="evenodd"></path></clipPath><clipPath id="SvgjsClipPath1141"><path d="M -66 -35L 66 -35Q 74 -35  74 -27L 74 27Q 74 35  66 35L -66 35Q -74 35  -74 27L -74 -27Q -74 -35  -66 -35 
  M -10000 -10000
  L 10000 -10000
  L 10000 10000
  L -10000 10000
" fill="black" transform="translate(0 0)" clip-rule="evenodd"></path></clipPath><clipPath id="SvgjsClipPath1142"><path d="M -66 -35L 66 -35Q 74 -35  74 -27L 74 27Q 74 35  66 35L -66 35Q -74 35  -74 27L -74 -27Q -74 -35  -66 -35 
  M -10000 -10000
  L 10000 -10000
  L 10000 10000
  L -10000 10000
" fill="black" transform="translate(0 0)" clip-rule="evenodd"></path></clipPath></defs></svg>